<svg width="20" height="21" viewBox="0 0 20 21" fill="none" xmlns="http://www.w3.org/2000/svg">
<g clip-path="url(#clip0_2_58)">
<path d="M13.0083 10.0469C13.0083 11.7052 11.6583 13.0552 10 13.0552C8.34167 13.0552 6.99167 11.7052 6.99167 10.0469C6.99167 8.38854 8.34167 7.03854 10 7.03854C11.6583 7.03854 13.0083 8.38854 13.0083 10.0469ZM10 0.046875C4.48583 0.046875 0 4.53271 0 10.0469C0 15.561 4.48583 20.0469 10 20.0469C12.02 20.0469 13.9675 19.4452 15.6333 18.3077L15.6617 18.2877L14.3142 16.7219L14.2917 16.736C13.0122 17.5604 11.5221 17.9982 10 17.9969C5.61667 17.9969 2.05 14.4302 2.05 10.0469C2.05 5.66354 5.61667 2.09687 10 2.09687C14.3833 2.09687 17.95 5.66354 17.95 10.0469C17.9488 10.6214 17.886 11.1941 17.7625 11.7552C17.5117 12.7877 16.7883 13.1035 16.2458 13.0619C15.7008 13.0177 15.0625 12.6285 15.0575 11.6777V10.0469C15.0562 8.70587 14.5229 7.42016 13.5748 6.47185C12.6266 5.52354 11.341 4.99009 10 4.98854C8.65885 4.98987 7.37301 5.52322 6.42468 6.47156C5.47635 7.41989 4.94299 8.70573 4.94167 10.0469C4.94299 11.388 5.47635 12.6739 6.42468 13.6222C7.37301 14.5705 8.65885 15.1039 10 15.1052C10.6665 15.1068 11.3267 14.9756 11.942 14.7192C12.5572 14.4628 13.1152 14.0864 13.5833 13.6119C13.8792 14.0765 14.2884 14.4583 14.7723 14.7214C15.2563 14.9845 15.7992 15.1203 16.35 15.116C17.0783 15.116 17.8 14.8727 18.3808 14.4319C18.98 13.976 19.4275 13.3185 19.675 12.5277C19.7142 12.3994 19.7875 12.1077 19.7875 12.1052L19.7892 12.0944C19.935 11.461 20 10.8277 20 10.0469C20 4.53271 15.5142 0.046875 10 0.046875Z" fill="white"/>
</g>
<defs>
<clipPath id="clip0_2_58">
<rect width="20" height="20" fill="white" transform="translate(0 0.046875)"/>
</clipPath>
</defs>
</svg>
