<svg width="51" height="21" viewBox="0 0 51 21" fill="none" xmlns="http://www.w3.org/2000/svg">
<g clip-path="url(#clip0_2_1699)">
<path d="M42.9764 13.7346L41.1796 13.4266L39.3738 13.1543C38.7354 13.0512 38.0913 12.9865 37.4452 12.9605C35.7248 12.9157 34.0024 12.9293 32.2823 12.9552L27.1255 13.0681C25.0108 13.1271 12.7308 13.1789 10.6213 13.2883C9.5652 13.3289 8.51351 13.4063 7.45949 13.4645C6.40936 13.5484 5.35556 13.6125 4.30984 13.7208C3.66864 13.7553 3.02562 13.7327 2.38843 13.6531C2.0944 13.6116 1.81529 13.4977 1.57609 13.3218C1.33689 13.1459 1.14508 12.9133 1.01787 12.6451C0.554477 11.8411 0.790985 10.8946 1.64137 10.5759C2.19371 10.3823 2.77601 10.2881 3.36122 10.2979C6.00219 10.2599 8.63718 10.0355 11.2466 9.62641C11.9619 9.45945 22.8633 9.39854 23.5963 9.44556C25.8608 9.75576 28.1235 9.49189 30.3811 9.67334C31.2188 9.73763 32.0586 9.76889 32.8987 9.80701C33.7389 9.83682 34.5795 9.87113 35.4174 9.94254C38.4058 10.1823 41.383 10.5344 44.3476 10.9665C45.5226 11.0947 46.6284 11.5856 47.5117 12.3709C47.9214 12.7517 47.7808 13.5265 47.2388 13.6356C46.4697 13.7807 45.6892 13.8575 44.9066 13.8651C44.2638 13.8407 43.6229 13.7796 42.9872 13.682L42.9764 13.7346Z" fill="white"/>
<path d="M36.4871 15.9398C37.6039 15.2894 38.7448 14.665 39.9344 14.102C40.566 13.8045 41.2052 13.5194 41.8374 13.209C42.9407 12.6397 44.095 12.1751 45.2851 11.8212C46.5354 11.452 47.8306 11.2567 49.1342 11.2408L48.1379 14.4615C47.0569 13.825 45.9851 13.1715 44.9293 12.4926C41.2371 10.1145 37.6868 7.51819 34.2379 4.80011C33.7258 4.36928 33.2603 3.88585 32.8491 3.35779C32.6645 3.11871 32.5434 2.83675 32.4972 2.53823C32.451 2.23969 32.4811 1.93431 32.5849 1.6506C32.8411 0.760974 33.7022 0.284093 34.5142 0.662633C35.0322 0.921045 35.5056 1.26081 35.9162 1.669C37.8299 3.47078 39.9623 5.0252 42.2633 6.29581C42.8982 6.6493 43.5918 6.96641 44.0992 7.46507C45.7265 9.05555 47.7433 10.1093 49.5563 11.4434C49.6694 11.5258 49.7825 11.6081 49.8966 11.691L50.0456 11.7995C50.3124 11.9937 50.5081 12.2701 50.6027 12.5863C50.6973 12.9024 50.6856 13.2409 50.5693 13.5497C50.4531 13.8586 50.2387 14.1208 49.9591 14.296C49.6794 14.4714 49.3501 14.5501 49.0214 14.5201C47.6987 14.3996 46.325 14.6887 44.9662 15.0863C42.3021 15.8713 39.7175 17.3238 37.2412 18.9476C36.2773 19.6319 35.142 20.0345 33.9624 20.1107C33.3961 20.1307 32.9442 19.4864 33.2673 19.0201C33.733 18.3538 34.2683 17.7388 34.864 17.1856C35.3822 16.7447 35.9333 16.344 36.5125 15.987L36.4871 15.9398Z" fill="white"/>
</g>
<defs>
<clipPath id="clip0_2_1699">
<rect width="49.98" height="20.33" fill="white" transform="translate(0.685242 0.15625)"/>
</clipPath>
</defs>
</svg>
