<svg width="91" height="22" viewBox="0 0 91 22" fill="none" xmlns="http://www.w3.org/2000/svg">
<g clip-path="url(#clip0_2_1903)">
<path d="M0.251953 16.8219C0.251953 19.7863 2.42493 21.96 5.50665 21.96C8.58815 21.96 10.7612 19.7863 10.7612 16.8219C10.7612 13.8579 8.58815 11.6839 5.50665 11.6839C2.42493 11.6839 0.251953 13.8579 0.251953 16.8219Z" fill="url(#paint0_linear_2_1903)"/>
<path d="M1.68176 9.11586C1.68176 9.90159 1.7695 10.6554 1.93415 11.37C2.94206 10.762 4.15849 10.4185 5.50755 10.4185C9.29386 10.4185 12.0417 13.1114 12.0417 16.8216C12.0417 17.2971 11.9959 17.7555 11.909 18.1941C16.892 17.7925 20.3276 14.0798 20.3276 9.11586C20.3276 3.85676 16.472 -0.000305176 11.0047 -0.000305176C5.53687 -0.000305176 1.68176 3.85676 1.68176 9.11586Z" fill="url(#paint1_linear_2_1903)"/>
<path d="M25.8152 10.1934C25.8152 6.97935 27.684 5.50891 30.1406 5.50891C31.7156 5.50891 33.0173 6.18116 33.7523 7.46247C34.4872 6.18116 35.768 5.50891 37.3637 5.50891C39.8204 5.50891 41.6892 6.97935 41.6892 10.1934V16.159H39.4215V10.1934C39.4215 8.38677 38.4765 7.60944 37.1539 7.60944C35.8519 7.60944 34.907 8.42877 34.907 10.1934V16.159H32.6395V10.1934C32.6395 8.42877 31.6524 7.60944 30.3506 7.60944C29.0279 7.60944 28.0831 8.38677 28.0831 10.1934V16.159H25.8152V10.1934Z" fill="black"/>
<path d="M52.1878 10.971C52.1878 9.01741 50.8861 7.60993 48.9123 7.60993C46.9386 7.60993 45.6157 9.01741 45.6157 10.971C45.6157 12.9245 46.9386 14.3318 48.9123 14.3318C50.8861 14.3318 52.1878 12.9245 52.1878 10.971ZM43.327 11.0759C43.327 7.77787 45.6368 5.50946 48.9333 5.50946C52.1878 5.50946 54.4557 7.7149 54.4557 11.0549V16.1594H52.3769V14.0168C51.7259 15.6131 50.2563 16.4324 48.5343 16.4324C45.9307 16.4324 43.327 14.5629 43.327 11.0759Z" fill="black"/>
<path d="M56.0925 10.971C56.0925 7.8202 58.4023 5.50946 61.678 5.50946C64.4702 5.50946 66.5281 7.18979 67.0533 9.60549H64.7644C64.2814 8.40813 63.1685 7.60993 61.678 7.60993C59.7041 7.60993 58.3809 9.01741 58.3809 10.971C58.3809 12.9245 59.7041 14.3318 61.678 14.3318C63.1685 14.3318 64.2814 13.5338 64.7644 12.3364H67.0533C66.5281 14.7521 64.4702 16.4324 61.678 16.4324C58.4023 16.4324 56.0925 14.1217 56.0925 10.971Z" fill="black"/>
<path d="M68.6887 10.0883C68.6887 7.00051 70.5156 5.50909 73.2035 5.50909C75.8909 5.50909 77.6969 7.00051 77.6969 10.1305V10.2144H75.4502V10.0883C75.4502 8.30285 74.547 7.60962 73.2035 7.60962C71.8596 7.60962 70.9568 8.30285 70.9568 10.0883V16.159H68.6887V10.0883Z" fill="black"/>
<path d="M87.6282 11.0651C87.6326 9.15249 86.5356 7.86997 84.7751 7.63648C83.4476 7.46047 82.1684 8.05542 81.5351 9.15057C81.1658 9.7896 81.0303 10.4863 81.084 11.2156C81.1757 12.4617 81.702 13.4607 82.872 13.9891C84.0508 14.5218 85.2361 14.4648 86.3178 13.7145C87.2606 13.0603 87.6008 12.0816 87.6282 11.0651ZM89.9715 10.2364C89.9732 11.1821 89.9337 12.117 89.5819 13.0082C88.8537 14.8542 87.4806 15.9251 85.5561 16.3118C84.6462 16.4948 83.7341 16.4953 82.8182 16.432C82.0477 16.3788 81.2811 16.1952 80.5589 15.9003C79.7878 15.5851 79.2648 15.0321 79.0601 14.2306C78.924 13.6971 78.8505 13.142 78.805 12.5919C78.76 12.0405 78.7726 11.4832 78.7803 10.9284C78.7945 9.87876 79.1748 8.3555 79.8707 7.60601C80.454 6.82764 81.2844 6.18635 82.4357 5.88012C83.0882 5.70647 84.025 5.56022 84.9968 5.50894C85.7608 5.4687 86.5724 5.49829 87.1069 5.54408C88.475 5.6614 89.3223 6.36187 89.6736 7.68896C89.7208 7.86739 89.769 8.04839 89.7877 8.23127C89.9233 8.96116 89.9715 9.57988 89.9715 10.2364Z" fill="black"/>
</g>
<defs>
<linearGradient id="paint0_linear_2_1903" x1="1.77549" y1="13.0894" x2="9.24072" y2="20.5517" gradientUnits="userSpaceOnUse">
<stop stop-color="#FDBB39"/>
<stop offset="0.11" stop-color="#FFAC5C"/>
<stop offset="0.22" stop-color="#FFA180"/>
<stop offset="0.33" stop-color="#FF9DA5"/>
<stop offset="0.44" stop-color="#FF9DC7"/>
<stop offset="0.56" stop-color="#FFA7E5"/>
<stop offset="0.67" stop-color="#EFB4FB"/>
<stop offset="0.78" stop-color="#D1C1FF"/>
<stop offset="0.89" stop-color="#B2C7FF"/>
<stop offset="1" stop-color="#9DCEFF"/>
</linearGradient>
<linearGradient id="paint1_linear_2_1903" x1="4.8637" y1="2.01406" x2="18.1081" y2="15.2532" gradientUnits="userSpaceOnUse">
<stop stop-color="#FDBB39"/>
<stop offset="0.11" stop-color="#FFAC5C"/>
<stop offset="0.22" stop-color="#FFA180"/>
<stop offset="0.33" stop-color="#FF9DA5"/>
<stop offset="0.44" stop-color="#FF9DC7"/>
<stop offset="0.56" stop-color="#FFA7E5"/>
<stop offset="0.67" stop-color="#EFB4FB"/>
<stop offset="0.78" stop-color="#D1C1FF"/>
<stop offset="0.89" stop-color="#B2C7FF"/>
<stop offset="1" stop-color="#9DCEFF"/>
</linearGradient>
<clipPath id="clip0_2_1903">
<rect width="90" height="21.96" fill="white" transform="translate(0.251953)"/>
</clipPath>
</defs>
</svg>
