<svg width="71" height="19" viewBox="0 0 71 19" fill="none" xmlns="http://www.w3.org/2000/svg">
<g clip-path="url(#clip0_2_1900)">
<path d="M24.7734 15.5942V7.70609H24.9139L30.6547 15.5942H32.4611V4.01046H30.4539V11.8786H30.3134L24.5727 4.01046H22.7662V15.5942H24.7734ZM38.1416 15.773C40.7912 15.773 42.417 14.0642 42.417 11.2031C42.417 8.36181 40.7912 6.63321 38.1416 6.63321C35.5121 6.63321 33.8662 8.36181 33.8662 11.2031C33.8863 14.0642 35.4921 15.773 38.1416 15.773ZM38.1416 14.1039C36.7365 14.1039 35.9336 13.0509 35.9336 11.2031C35.9336 9.37513 36.7365 8.30219 38.1416 8.30219C39.5467 8.30219 40.3496 9.37513 40.3496 11.2031C40.3496 13.0509 39.5467 14.1039 38.1416 14.1039ZM44.2436 4.66614V6.8716H42.8386V8.46112H44.2436V13.2496C44.2436 14.9583 45.0465 15.6339 47.0939 15.6339C47.4753 15.6339 47.8566 15.5942 48.1577 15.5345V13.9848C47.9169 14.0046 47.7563 14.0245 47.4753 14.0245C46.6322 14.0245 46.2509 13.647 46.2509 12.7727V8.46112H48.1577V6.8716H46.2509V4.66614H44.2436ZM49.3621 15.5942H51.3693V6.81203H49.3621V15.5942ZM50.3657 5.36156C51.0281 5.36156 51.5701 4.82509 51.5701 4.16941C51.5701 3.49386 51.0281 2.9574 50.3657 2.9574C49.7033 2.9574 49.1614 3.49386 49.1614 4.16941C49.1614 4.82509 49.7033 5.36156 50.3657 5.36156ZM56.8691 15.773C59.5186 15.773 61.1444 14.0642 61.1444 11.2031C61.1444 8.36181 59.5186 6.63321 56.8691 6.63321C54.2397 6.63321 52.5938 8.36181 52.5938 11.2031C52.5938 14.0642 54.1995 15.773 56.8691 15.773ZM56.8691 14.1039C55.4641 14.1039 54.6612 13.0509 54.6612 11.2031C54.6612 9.37513 55.4641 8.30219 56.8691 8.30219C58.2541 8.30219 59.077 9.37513 59.077 11.2031C59.0572 13.0509 58.2541 14.1039 56.8691 14.1039ZM62.3285 15.5942H64.3358V10.4878C64.3358 9.19631 65.0988 8.38165 66.283 8.38165C67.5074 8.38165 68.0697 9.05721 68.0697 10.3884V15.5942H70.077V9.9116C70.077 7.80545 68.9931 6.63321 67.0255 6.63321C65.7008 6.63321 64.8176 7.22925 64.3965 8.22272H64.2559V6.81203H62.3087C62.3291 6.81203 62.3285 15.5942 62.3285 15.5942Z" fill="white"/>
<path fill-rule="evenodd" clip-rule="evenodd" d="M3.52017 3.26906C4.10438 3.74045 4.3157 3.70323 5.40953 3.62881L15.714 3.00857C15.9377 3.00857 15.7513 2.78528 15.6767 2.76046L13.9614 1.53239C13.6382 1.28429 13.1907 0.986575 12.3579 1.061L2.38905 1.79289C2.02858 1.8301 1.954 2.01618 2.10316 2.15263L3.52017 3.26906ZM4.14168 5.66319V16.4802C4.14168 17.0632 4.42757 17.2741 5.08635 17.2369L16.4101 16.5794C17.0688 16.5422 17.1435 16.1453 17.1435 15.6739V4.93131C17.1435 4.45992 16.957 4.19943 16.5592 4.23664L4.72588 4.93131C4.29083 4.96852 4.14168 5.19181 4.14168 5.66319ZM15.3162 6.24622C15.3908 6.56875 15.3162 6.9037 14.9931 6.94086L14.4461 7.05253V15.0413C13.9738 15.2893 13.5387 15.4382 13.1658 15.4382C12.5816 15.4382 12.4325 15.2521 11.9974 14.7063L8.43003 9.11172V14.5202L9.56118 14.7683C9.56118 14.7683 9.56118 15.4258 8.65374 15.4258L6.1429 15.5746C6.06833 15.4258 6.1429 15.066 6.39152 14.9916L7.05027 14.8055V7.66036L6.1429 7.58591C6.06833 7.26339 6.25478 6.79203 6.76438 6.75481L9.46172 6.56875L13.1783 12.2253V7.22622L12.2336 7.11455C12.159 6.71758 12.4573 6.41991 12.8178 6.38269L15.3162 6.24622ZM1.55624 0.800505L11.9353 0.0438113C13.2032 -0.0678321 13.5388 0.0065971 14.3342 0.589622L17.6406 2.90932C18.1876 3.30628 18.374 3.41792 18.374 3.85209V16.5919C18.374 17.3857 18.0881 17.8572 17.0689 17.9315L5.02421 18.6635C4.25355 18.7006 3.89308 18.589 3.49532 18.0804L1.04661 14.9172C0.61156 14.3342 0.42511 13.9 0.42511 13.3914V2.06579C0.42511 1.40834 0.723429 0.874935 1.55624 0.800505Z" fill="white"/>
</g>
<defs>
<clipPath id="clip0_2_1900">
<rect width="70" height="18.67" fill="white" transform="translate(0.251953)"/>
</clipPath>
</defs>
</svg>
