<svg width="13" height="13" viewBox="0 0 13 13" fill="none" xmlns="http://www.w3.org/2000/svg">
<path fill-rule="evenodd" clip-rule="evenodd" d="M7.80748 1.2818C7.88069 1.32255 7.93814 1.38664 7.97067 1.46386C8.00321 1.54107 8.00895 1.62695 7.98698 1.7078L6.99098 5.3593H10.625C10.6981 5.35931 10.7695 5.38067 10.8306 5.42075C10.8918 5.46084 10.9398 5.51791 10.9689 5.58494C10.998 5.65197 11.0069 5.72605 10.9945 5.79807C10.9821 5.87009 10.9489 5.9369 10.899 5.9903L5.64898 11.6153C5.59179 11.6767 5.51567 11.7172 5.43279 11.7302C5.34991 11.7432 5.26505 11.7281 5.19178 11.6872C5.11852 11.6463 5.06109 11.582 5.02867 11.5046C4.99626 11.4272 4.99073 11.3412 5.01298 11.2603L6.00898 7.6093H2.37498C2.3019 7.6093 2.23041 7.58794 2.1693 7.54785C2.1082 7.50777 2.06014 7.4507 2.03103 7.38367C2.00192 7.31663 1.99303 7.24255 2.00546 7.17054C2.01789 7.09852 2.05109 7.03171 2.10098 6.9783L7.35098 1.3533C7.40816 1.29213 7.48417 1.25185 7.56691 1.23889C7.64964 1.22593 7.73433 1.24104 7.80748 1.2818Z" fill="white"/>
</svg>
