<svg width="10" height="11" viewBox="0 0 10 11" fill="none" xmlns="http://www.w3.org/2000/svg">
<path fill-rule="evenodd" clip-rule="evenodd" d="M6.27623 0.125554C6.34944 0.166302 6.40689 0.230394 6.43942 0.307606C6.47196 0.384817 6.4777 0.4707 6.45573 0.551554L5.45973 4.20305H9.09373C9.16681 4.20306 9.23829 4.22442 9.2994 4.2645C9.36051 4.30459 9.40856 4.36166 9.43767 4.42869C9.46678 4.49572 9.47567 4.5698 9.46324 4.64182C9.45082 4.71384 9.41762 4.78065 9.36773 4.83405L4.11773 10.4591C4.06054 10.5205 3.98442 10.5609 3.90154 10.5739C3.81866 10.587 3.7338 10.5718 3.66053 10.5309C3.58727 10.49 3.52984 10.4257 3.49742 10.3484C3.46501 10.271 3.45948 10.185 3.48173 10.1041L4.47773 6.45305H0.843726C0.770646 6.45305 0.699159 6.43169 0.638054 6.3916C0.576948 6.35152 0.528888 6.29445 0.49978 6.22742C0.470672 6.16038 0.461785 6.0863 0.474211 6.01429C0.486638 5.94227 0.519837 5.87546 0.569726 5.82205L5.81973 0.197054C5.87691 0.135877 5.95292 0.0956004 6.03566 0.0826424C6.11839 0.0696843 6.20308 0.0847907 6.27623 0.125554Z" fill="white" fill-opacity="0.5"/>
</svg>
