<svg width="40" height="41" viewBox="0 0 40 41" fill="none" xmlns="http://www.w3.org/2000/svg">
<g clip-path="url(#clip0_2_1771)">
<path d="M26.6412 5.33967C25.4099 4.72854 24.0966 4.29919 22.7421 4.06504C22.2422 3.99505 21.7424 3.99505 21.2425 3.97006C19.4248 3.83191 17.5975 4.05097 15.8639 4.61487C15.09 4.89057 14.349 5.25099 13.6544 5.68958C13.4395 5.83453 13.2145 5.96949 12.9897 6.10445L12.3348 6.54933C11.8849 6.82426 11.45 7.12916 10.9602 7.3691C10.6552 7.51406 10.4253 7.19415 10.3903 6.68929C10.3364 6.07089 10.5577 5.46017 10.9951 5.01976C11.4394 4.61841 11.9104 4.24766 12.4048 3.91007C12.9177 3.5932 13.4485 3.30614 13.9943 3.05032C15.1089 2.55679 16.2865 2.22033 17.4935 2.0506C18.9426 1.77723 20.4128 1.63171 21.8874 1.61572C23.5045 1.68953 25.1025 1.99765 26.6311 2.53046C27.5625 2.86131 28.4652 3.26754 29.3304 3.74512C30.6154 4.48265 31.8199 5.3521 32.9246 6.33939C33.841 7.08476 34.6785 7.92226 35.4239 8.83869C35.6115 9.04377 35.7788 9.2664 35.9238 9.5035C36.02 9.70112 36.0874 9.91154 36.1237 10.1283C36.1398 10.2973 36.1194 10.4678 36.0638 10.6282C35.9648 10.879 35.7854 11.0899 35.5538 11.228C35.4478 11.3055 35.3377 11.3772 35.224 11.4429C34.854 11.6079 34.3842 11.358 33.8193 11.0281C33.6844 10.8731 33.4744 10.7481 33.3594 10.5882C33.2445 10.4282 33.0745 10.2833 32.9496 10.1283L32.5197 9.67344L32.0747 9.22358C31.4569 8.60147 30.799 8.02039 30.1053 7.48406C29.04 6.65579 27.8785 5.95927 26.6461 5.40965L26.6412 5.33967Z" fill="white"/>
<path d="M39.0509 11.1268C38.9445 11.8352 38.6335 12.4971 38.1562 13.0313C37.8903 13.3133 37.5775 13.5467 37.2314 13.7211C36.9153 13.8754 36.5786 13.9831 36.2317 14.041C35.8092 14.1272 35.3775 14.1592 34.947 14.136C34.2839 14.0616 33.6304 13.9175 32.9976 13.7061C32.3826 13.5162 31.7878 13.3013 31.208 13.0613C30.6281 12.8214 30.1682 12.6714 29.6583 12.4565C28.9682 12.2378 28.3348 11.869 27.8038 11.3768C27.6389 11.2068 27.8588 10.9719 28.1837 10.8019C28.5076 10.6015 28.898 10.5385 29.2685 10.627C30.4532 11.0968 31.7179 11.4418 32.9625 11.8716C33.707 12.0777 34.4833 12.1437 35.2519 12.0666C35.5689 12.0611 35.8802 11.9824 36.1618 11.8366C36.2699 11.7757 36.3663 11.6963 36.4466 11.6017C36.5362 11.4869 36.6132 11.3629 36.6766 11.2318C36.8581 10.7882 36.9433 10.3112 36.9265 9.8322C36.9154 8.9979 36.7995 8.16831 36.5816 7.3629C36.4367 6.71809 36.1218 6.13324 35.9618 5.48843C35.9267 5.34347 35.8818 5.20351 35.8618 5.05855C35.7768 4.50371 35.8368 4.29376 36.0418 4.09882C36.0841 4.05294 36.1292 4.00954 36.1767 3.96885C36.3317 3.86389 36.5666 4.01884 36.8616 4.34375L37.5164 5.08854C37.7189 5.35054 37.8978 5.62987 38.0512 5.92331C38.423 6.49301 38.6951 7.1218 38.856 7.78278C39.1494 8.87352 39.2308 10.0104 39.096 11.1318L39.0509 11.1268Z" fill="white"/>
<path d="M5.89769 22.6006C5.8801 23.9615 6.10175 25.315 6.55252 26.5994C6.74895 27.0563 6.9709 27.502 7.21735 27.9341C7.61556 28.7356 8.10719 29.4873 8.68197 30.1734C8.97311 30.5221 9.28176 30.8557 9.60674 31.1731C9.95165 31.4781 10.2866 31.798 10.6615 32.0679C11.3253 32.5637 12.0471 32.9766 12.8109 33.2975C13.0559 33.3975 13.3108 33.5125 13.5358 33.6174C13.7607 33.7224 14.0356 33.8074 14.2806 33.9123C14.7808 34.1122 15.2697 34.3392 15.7451 34.5921C16.0401 34.7672 15.9002 35.132 15.5003 35.442C15.0145 35.8317 14.383 35.9905 13.7707 35.8768C13.1874 35.7345 12.6146 35.5525 12.0561 35.3319C11.4984 35.0898 10.9574 34.8108 10.4365 34.4972C9.37997 33.8616 8.4246 33.0715 7.60226 32.1529C6.55619 31.0689 5.63408 29.8719 4.85295 28.5838C4.09048 27.1141 3.5914 25.5222 3.37832 23.8801C3.26102 22.8849 3.23592 21.8809 3.30335 20.881C3.42091 19.3839 3.70767 17.9049 4.15813 16.4722C4.44775 15.3318 4.83405 14.2181 5.31283 13.1432C5.42013 12.8954 5.5437 12.6549 5.68274 12.4234C5.81358 12.2523 5.96655 12.0994 6.13762 11.9686C6.27744 11.8796 6.43392 11.82 6.5975 11.7935C6.8788 11.7526 7.1657 11.8072 7.4123 11.9486C7.53341 11.9994 7.65041 12.0596 7.76221 12.1285C8.09213 12.3635 8.11212 12.8983 8.06214 13.5781L7.96716 13.9029C7.94821 14.012 7.91458 14.118 7.86718 14.2179C7.77721 14.4078 7.70722 14.6128 7.62225 14.8128C7.46228 15.2127 7.31232 15.6175 7.16236 16.0323C6.85486 16.8676 6.59781 17.7206 6.39256 18.5867C6.07142 19.8944 5.9285 21.2395 5.96767 22.5855L5.89769 22.6006Z" fill="white"/>
<path d="M6.14415 9.01791C6.86789 8.72717 7.66317 8.66439 8.42357 8.83796C9.19654 9.05733 9.86849 9.54006 10.3231 10.2026C10.5934 10.5698 10.8231 10.9654 11.0079 11.3822C11.2609 12.0653 11.4451 12.772 11.5578 13.4917C11.6778 14.1815 11.7677 14.8663 11.8177 15.551C11.8677 16.1559 11.9377 16.7607 11.9676 17.3656C12.0741 18.173 11.9636 18.9943 11.6477 19.7448C11.5228 19.9848 11.2429 19.8199 10.9879 19.545C10.6986 19.2834 10.508 18.9305 10.4481 18.5452C10.3651 17.1419 10.1982 15.7447 9.94818 14.3614C9.78287 13.5238 9.46428 12.724 9.00843 12.002C8.84829 11.68 8.61764 11.398 8.3336 11.1773C8.08232 11.0142 7.78015 10.9484 7.48381 10.9924C6.95949 11.0654 6.45677 11.2495 6.00919 11.5322C5.22226 12.0064 4.49407 12.5718 3.83973 13.2167C3.29988 13.7166 2.90497 14.3164 2.36511 14.8163C2.24515 14.9263 2.13517 15.0412 2.00521 15.1412C1.50533 15.5211 1.28039 15.5761 1.00546 15.486C0.943208 15.4713 0.882837 15.4495 0.825506 15.4211C0.665547 15.3311 0.715534 15.0463 0.885491 14.6113L1.27539 13.6117C1.41928 13.2868 1.58634 12.9727 1.77526 12.6719C2.13517 12.0319 2.58835 11.4489 3.11992 10.9424C3.98849 10.0975 5.00518 9.4197 6.11916 8.94292L6.14415 9.01791Z" fill="white"/>
<path d="M31.337 32.0175C32.5989 31.309 33.7163 30.3696 34.6312 29.2483C34.9447 28.8158 35.2351 28.3669 35.5009 27.9037C36.5413 26.2559 37.2052 24.3989 37.4454 22.4652C37.4979 22.0273 37.523 21.5866 37.5204 21.1456C37.5204 20.7057 37.4753 20.2658 37.4355 19.8309C37.3054 18.7063 37.0805 17.6066 37.0105 16.4419C37.0105 16.077 37.3904 16.012 37.8653 16.212C38.1404 16.332 38.3912 16.5014 38.6051 16.7118C38.8625 16.9438 39.0496 17.2434 39.145 17.5765C39.23 17.8865 39.3199 18.1913 39.3949 18.5013C39.4699 18.8112 39.5249 19.1311 39.5699 19.451C39.6149 19.7709 39.6248 20.0909 39.6448 20.4108C39.6623 20.7337 39.6623 21.0575 39.6448 21.3805C39.6484 22.6833 39.4476 23.9787 39.05 25.2194C38.6209 26.7524 38.0258 28.2342 37.2754 29.6382C36.3552 31.1364 35.1694 32.4543 33.7763 33.527C32.9255 34.1795 32.0031 34.7329 31.0271 35.1766C30.294 35.5162 29.5351 35.797 28.7576 36.0163C27.9829 36.227 27.1968 36.3939 26.4033 36.5162C25.1715 36.7414 23.9212 36.8485 22.6692 36.8361C22.3884 36.8396 22.1078 36.8229 21.8294 36.7862C21.613 36.7331 21.402 36.6594 21.1995 36.5662C20.7963 36.3193 20.5516 35.8793 20.5547 35.4066C20.5449 35.2734 20.5449 35.1398 20.5547 35.0067C20.5989 34.791 20.7387 34.607 20.9346 34.5068C21.2042 34.3378 21.4973 34.2098 21.8044 34.1269C22.278 34.0605 22.7559 34.0305 23.234 34.037C23.6989 34.037 24.1637 34.0069 24.6236 33.9669C25.556 33.908 26.4821 33.7743 27.393 33.567C28.0731 33.4032 28.7412 33.1927 29.3924 32.9372C30.0487 32.6682 30.6808 32.3438 31.282 31.9676L31.337 32.0175Z" fill="white"/>
<path d="M19.3858 39.0851C18.9088 38.7976 18.4789 38.4386 18.1111 38.0205C17.6752 37.5402 17.3644 36.9599 17.2064 36.3309C17.0832 35.8386 17.0832 35.3236 17.2064 34.8313C17.4273 34.1501 17.8078 33.5314 18.3161 33.0268C18.736 32.5845 19.1817 32.1672 19.6508 31.7772L20.8305 30.7774C21.302 30.3015 21.8625 29.9228 22.48 29.6627C22.685 29.5928 22.8249 29.8777 22.8599 30.2376C22.9263 30.6078 22.8298 30.9886 22.5949 31.2823C21.6903 32.127 20.8305 33.0068 19.9707 33.8416C19.7235 34.0833 19.525 34.37 19.3858 34.6864C19.2786 34.9243 19.2176 35.1805 19.2059 35.4411C19.1953 35.6837 19.2657 35.9228 19.4058 36.121C19.5988 36.3876 19.8275 36.6264 20.0856 36.8307C20.4702 37.1456 20.8895 37.4156 21.3353 37.6355C22.0482 37.9925 22.7908 38.2868 23.5548 38.5153C24.1496 38.7252 24.7794 38.7602 25.3792 38.9702C25.5143 39.0201 25.6442 39.0601 25.7742 39.1201C26.2741 39.355 26.394 39.53 26.424 39.8049C26.424 39.8699 26.424 39.9348 26.424 39.9899C26.424 40.1748 26.1641 40.2748 25.7642 40.3448L24.8494 40.4947C24.5426 40.5314 24.2334 40.543 23.9246 40.5297C23.296 40.547 22.6687 40.4661 22.0651 40.2897C21.1138 40.0117 20.1979 39.6242 19.3358 39.135L19.3858 39.0851Z" fill="white"/>
</g>
<defs>
<clipPath id="clip0_2_1771">
<rect width="38.92" height="40" fill="white" transform="translate(0.728394 0.828125)"/>
</clipPath>
</defs>
</svg>
