<svg width="33" height="40" viewBox="0 0 33 40" fill="none" xmlns="http://www.w3.org/2000/svg">
<g clip-path="url(#clip0_2_1810)">
<path d="M2.91341 24.0063C3.83821 24.8985 4.76301 25.7641 5.68781 26.6385C6.02537 26.9553 6.38604 27.2497 6.72359 27.5709C7.90734 28.7085 9.08646 29.8507 10.2193 31.0374L11.7545 32.5944C12.4399 33.2448 13.0115 33.9981 13.4469 34.8251C13.5671 35.1061 13.4469 35.1017 13.2157 34.9545C12.8616 34.7355 12.5274 34.4877 12.2169 34.2139C12.0551 34.0533 11.8747 33.8971 11.7083 33.741L11.4447 33.5135L11.1857 33.2993L10.1777 32.3223C9.50724 31.6709 8.8183 31.024 8.16163 30.3369C7.38022 29.5161 6.46003 28.7577 5.59996 27.9725L2.77007 25.3581C2.19207 24.8138 1.61869 24.2739 1.05456 23.7029C0.94821 23.5959 0.837232 23.4887 0.735506 23.3727C0.633777 23.2568 0.629154 23.2612 0.578289 23.1988C0.527425 23.1363 0.471937 23.0828 0.402577 22.9846C0.260481 22.8252 0.187603 22.6191 0.199121 22.4091C0.21644 22.3061 0.247525 22.2055 0.291601 22.1102C0.333217 22.0121 0.388705 21.9095 0.421073 21.8515C0.735506 21.3071 1.09155 20.8343 1.41986 20.3391C1.93774 19.5806 2.40939 18.8133 2.88105 18.0548C2.9874 17.8853 3.07525 17.7157 3.19085 17.5551C3.33429 17.3412 3.49674 17.1397 3.67637 16.9529C3.78713 16.8629 3.91881 16.8001 4.06017 16.7699C4.11456 16.7515 4.17017 16.7366 4.22663 16.7253C4.30524 16.7253 4.34686 16.7923 4.35148 16.9573C4.35433 17.183 4.30703 17.4066 4.21276 17.6131C3.57002 19.1657 2.43251 20.4907 1.61406 21.9183C1.5447 22.0477 1.47072 22.1771 1.41061 22.2976L1.36899 22.3868L1.46148 22.4983L1.60944 22.6634C2.01635 23.1095 2.48338 23.5557 2.94115 24.0018L2.91341 24.0063Z" fill="white"/>
<path d="M17.2283 26.1606C17.2283 26.1606 18.2964 26.0936 18.4629 25.5092C18.6293 24.9248 18.4629 27.2581 18.4629 27.2581L17.2283 26.1606Z" fill="white"/>
<path d="M18.7968 21.3248L15.9762 21.4496L14.9543 21.521L13.1416 21.6147C12.5359 21.6147 11.9302 21.6549 11.3245 21.6906C10.7881 21.7262 10.2517 21.7709 9.7245 21.8155L7.67609 21.9895C7.4634 21.9895 7.49114 21.9895 7.67609 21.9627C7.86104 21.936 8.18008 21.8512 8.56852 21.7887C9.95572 21.5612 11.3429 21.3426 12.7301 21.1954L15.3011 20.9322L18.1356 20.6957L19.8789 20.5708C20.762 20.5038 21.6452 20.4503 22.5191 20.3611C23.1989 20.2986 23.8555 20.1826 24.5259 20.0934C24.674 20.0934 24.8173 20.0488 24.9884 20.0354C25.5386 19.9818 25.7189 20.0354 25.8577 20.2183C25.8918 20.2598 25.9213 20.3046 25.9456 20.3522C26.0149 20.5083 25.8022 20.6555 25.3999 20.7403C24.1707 20.9774 22.925 21.1266 21.673 21.1864L18.7968 21.3381V21.3248Z" fill="white"/>
<path d="M10.3445 19.8131L9.74794 19.0859C9.674 18.9967 9.59072 18.9163 9.52138 18.8271C9.28556 18.497 9.059 18.1624 8.83244 17.8233L8.52721 17.3772C8.39 17.1996 8.28232 17.0024 8.20818 16.7927C8.16658 16.6545 8.44401 16.7437 8.59662 16.9266C8.85551 17.2791 9.16535 17.6092 9.43817 17.975C9.61852 18.1851 9.80988 18.3861 10.0116 18.5773L10.6404 19.2643L11.0335 19.6837C11.2369 19.8934 11.4357 20.1075 11.6531 20.2994C11.8311 20.4392 12.0162 20.5702 12.2079 20.692C12.2513 20.7161 12.293 20.743 12.3328 20.7723C12.4761 20.8883 12.4854 20.9597 12.379 21.1203C12.3571 21.1591 12.3323 21.1963 12.3051 21.2318C12.225 21.3449 12.0694 21.3815 11.9444 21.3166C11.5753 21.1101 11.2442 20.8463 10.9641 20.5359C10.7468 20.3083 10.5387 20.0897 10.326 19.8354L10.3445 19.8131Z" fill="white"/>
<path d="M4.27094 24.0332C5.38533 25.269 6.54133 26.4691 7.69731 27.6692C8.12735 28.1153 8.62213 28.5034 9.02904 28.9496C10.5319 30.52 12.0023 32.1261 13.4635 33.7545C14.097 34.4862 14.7674 35.2 15.4148 35.9272L16.0437 36.6366C16.2286 36.8998 16.4089 37.154 16.5708 37.4396C16.9426 38.0238 17.1749 38.6807 17.2505 39.3624C17.2505 39.9022 16.9407 39.7104 16.5708 39.5052C16.049 39.2873 15.5542 39.0134 15.0957 38.6888C14.883 38.4969 14.6565 38.3096 14.4207 38.1222C14.2053 37.9188 14.0015 37.7044 13.8103 37.4798L12.571 36.1413L11.9468 35.4721L11.3503 34.7628C10.9526 34.2854 10.5596 33.8036 10.1712 33.3128C9.15646 32.1596 8.07588 31.0618 6.93436 30.0248C5.74138 28.8202 4.54838 27.6022 3.37389 26.3576C2.64329 25.6036 1.92657 24.8228 1.22373 23.9752L1.02951 23.7164C0.950905 23.6094 0.872297 23.48 0.793691 23.3595C0.651075 23.1236 0.558348 22.8628 0.520874 22.5922C0.546463 22.3127 0.611813 22.038 0.715083 21.7757C0.844554 21.4991 0.923162 21.3296 1.02489 21.1466C1.40868 20.4239 1.81559 19.7502 2.19014 19.0676C2.48145 18.5323 2.74502 17.997 2.99472 17.4571C3.24441 16.9173 3.45712 16.3641 3.74843 15.86C3.8779 15.6324 3.97039 15.4138 4.09985 15.1863C4.24934 14.8884 4.43903 14.6108 4.66398 14.3609C4.82999 14.2276 5.02654 14.1342 5.23736 14.0888C5.33447 14.0888 5.4362 14.0263 5.51942 14.013C5.60266 13.9996 5.75988 14.0932 5.83848 14.3163C5.93723 14.6258 5.95155 14.9546 5.8801 15.271C5.76912 15.8376 5.6304 16.3998 5.47781 16.9485C5.40425 17.2213 5.3052 17.4871 5.18187 17.7426C5.0709 18.0014 4.95067 18.2557 4.83045 18.51C4.34492 19.5272 3.80392 20.5221 3.33689 21.4902L3.07333 22.0032C3.0311 22.0843 2.99405 22.1677 2.96235 22.2531L2.92073 22.3512C2.91358 22.3472 2.90476 22.3472 2.89762 22.3512C2.85137 22.2977 3.01322 22.5029 3.11032 22.6278L3.48024 23.074C3.74381 23.3729 4.02124 23.6718 4.30331 23.9662L4.27094 24.0332Z" fill="white"/>
<path d="M27.7295 11.8845C28.2076 13.0443 28.7764 14.1674 29.4312 15.2439C30.0924 16.3414 30.8184 17.4032 31.6183 18.5051L32.4321 19.6339L32.5709 19.9863L32.6356 20.1648L32.6726 20.2495V20.2941H32.5986C32.6192 20.4138 32.6192 20.5359 32.5986 20.6555C32.5635 20.7809 32.5138 20.9022 32.4506 21.0169C32.3102 21.2599 32.1558 21.4953 31.9882 21.7218L31.7755 22.0073L31.6229 22.2036C29.4266 24.9072 27.1931 27.5082 25.0892 30.2341C24.1644 31.4431 23.2396 32.6789 22.4119 33.9147C21.8663 34.7089 21.353 35.5252 20.8444 36.3328C20.3358 37.1402 19.7438 37.9076 19.2815 38.7196C19.004 39.2192 18.8191 39.1077 18.7081 38.5189C18.6169 37.5879 18.7548 36.6494 19.1104 35.7796C20.0486 33.9994 21.1003 32.2769 22.2593 30.6223C23.4523 29.0027 24.71 27.4368 26.0325 25.9065C26.8186 25.0143 27.5769 24.0283 28.3168 23.0468L30.1987 20.5217C30.1987 20.486 30.2727 20.4414 30.245 20.4013L30.171 20.2897C30.171 20.2451 30.1155 20.2005 30.0832 20.1514L29.9907 20.0175L29.8565 19.8347L29.3202 19.103C28.9688 18.6211 28.5988 18.1304 28.252 17.6084C27.5397 16.5848 26.8912 15.5211 26.31 14.423C26.1019 14.0304 25.9077 13.6289 25.7227 13.2229C25.6256 13.0221 25.5424 12.8169 25.4545 12.6117L25.3574 12.3841L25.3065 12.2325C25.2785 12.1393 25.2397 12.0496 25.1909 11.9648C25.0935 11.9453 24.9944 11.9349 24.895 11.9335H24.7424H23.9332C23.2951 11.9023 22.657 12.054 22.0143 12.0273L20.0907 12.0674L18.1671 12.1388C17.5289 12.1388 16.8909 12.1789 16.2528 12.2101C14.2737 12.3128 12.3408 12.5894 10.3895 12.7991C9.95944 12.8437 9.54333 12.9195 9.10862 12.9507C8.67398 12.982 8.37341 12.9909 8.09139 12.9865C7.84729 12.9517 7.61027 12.881 7.38851 12.7767C7.06128 12.6195 6.78354 12.3807 6.58394 12.0853C6.4935 11.9727 6.41011 11.855 6.33425 11.7328C6.24639 11.5409 6.36199 11.3581 6.63943 11.1261C7.02041 10.8021 7.46559 10.5563 7.94804 10.4033C9.72102 10.0624 11.5115 9.81219 13.3119 9.65379C14.2367 9.56459 15.1614 9.49172 16.0863 9.43519C17.0111 9.38165 17.9359 9.30579 18.8607 9.31919H20.7103H21.6351C21.9441 9.31252 22.2532 9.32745 22.5599 9.36379C22.8743 9.41285 23.1887 9.47532 23.4847 9.51105H24.4373C24.5343 9.51105 24.9366 9.51105 25.2141 9.53332C25.3689 9.53519 25.5234 9.54712 25.6764 9.56905H25.8984C25.9659 9.58299 26.0301 9.60872 26.088 9.64485C26.2101 9.69352 26.3192 9.76825 26.4071 9.86345L26.5504 9.98392C26.5967 9.92145 26.4579 10.1178 26.6521 9.85012L26.6799 9.88579L26.74 9.96605L27.2255 10.5817L27.6093 11.4383L27.7804 11.8443L27.7295 11.8845Z" fill="white"/>
<path d="M18.5295 21.8247C17.2532 21.8783 15.9724 21.9452 14.6962 22.0433C14.2338 22.0745 13.7713 22.1772 13.3089 22.1995C11.6536 22.2619 9.99814 22.3333 8.34737 22.4627C7.97747 22.4895 7.61683 22.543 7.24686 22.5698L6.151 22.6679C5.6886 22.7125 5.2262 22.7661 4.7638 22.7929H4.40775L4.04707 22.7527C3.802 22.7259 3.56155 22.6991 3.31185 22.6501C3.15464 22.6233 3.06678 22.5653 3.0899 22.543C3.11302 22.5207 3.18701 22.5029 3.30261 22.4315C3.46239 22.3386 3.61676 22.2373 3.76501 22.1281L4.07482 21.9139C4.1303 21.8693 4.19042 21.8426 4.25053 21.7935L4.43549 21.7355C5.36029 21.4767 6.28509 21.2046 7.20992 20.986C8.13469 20.8521 9.11038 20.7495 10.0814 20.7005C11.2374 20.6514 12.3934 20.3703 13.591 20.2543C14.8858 20.1294 16.1851 20.0313 17.4844 19.9465L19.8936 19.7993C21.105 19.7234 22.3304 19.6967 23.5373 19.6163C23.9996 19.5851 24.4621 19.5316 24.9245 19.4781L25.6273 19.3977C25.7429 19.3977 25.8632 19.3665 25.9787 19.3621H26.3348C26.5475 19.3621 26.7509 19.3621 26.9637 19.3621C27.7451 19.4513 27.9902 19.6253 28.1011 20.0669C28.1334 20.1586 28.1581 20.2526 28.1751 20.348C28.2121 20.6291 27.87 20.9235 27.3336 21.0261C26.9313 21.1198 26.529 21.2135 26.1175 21.3161C25.7116 21.3927 25.3006 21.4405 24.8875 21.4589C24.0598 21.5213 23.209 21.5749 22.3581 21.6195C21.0911 21.6953 19.8057 21.7489 18.5248 21.847L18.5295 21.8247Z" fill="white"/>
<path d="M18.8462 16.8241C18.3838 17.2702 17.9213 17.7163 17.459 18.1625L16.0209 19.5143C15.6695 19.8444 15.3643 20.2147 14.9944 20.5404L14.4811 20.9865C14.2212 21.2161 13.9411 21.4235 13.6442 21.6067C13.4942 21.6733 13.3397 21.73 13.1818 21.7762C13.0271 21.7906 12.8711 21.7815 12.7193 21.7494C12.3946 21.6557 12.099 21.4855 11.8593 21.2542C11.7252 21.1471 11.6004 21.0311 11.4755 20.9151L11.2212 20.6475C11.0686 20.4913 10.9252 20.3263 10.7866 20.1657L9.96807 19.1975C9.50569 18.6309 8.97857 18.0911 8.46531 17.5736C8.11448 17.2612 7.78978 16.9225 7.49422 16.5609C7.20759 16.195 6.93476 15.8113 6.6388 15.4455C6.45846 15.218 6.5417 15.16 6.85615 15.1778C7.35133 15.2097 7.83592 15.3308 8.28496 15.5347L8.62713 15.7177C8.74328 15.7707 8.85075 15.8399 8.94616 15.9229L9.50109 16.4136C9.86639 16.7437 10.2224 17.0783 10.5646 17.4174C11.2489 18.0955 11.9148 18.796 12.5159 19.4831C12.5697 19.5329 12.6136 19.5919 12.6454 19.6571C12.6734 19.6949 12.7043 19.7307 12.7379 19.7641C12.7715 19.8 12.8147 19.8262 12.8627 19.8399C12.909 19.8399 12.946 19.8043 12.9876 19.7775C13.0252 19.7487 13.0608 19.7174 13.0939 19.6838L13.302 19.4697L13.9031 18.8451L16.6128 16.0299L17.4821 15.1778L18.4393 14.2855C18.7385 13.9821 19.0792 13.7195 19.4519 13.5048C19.6255 13.4271 19.8116 13.3789 20.0022 13.3621C20.1824 13.4273 20.3486 13.5241 20.4923 13.6476C20.8211 13.9245 21.1301 14.2226 21.4171 14.5399L22.0552 15.2046C22.7165 15.8783 23.4424 16.4627 24.1545 17.0917C24.3117 17.2301 24.4782 17.3505 24.617 17.4977C24.6863 17.5647 24.7464 17.6316 24.8019 17.6896C24.8574 17.7476 24.8805 17.8234 24.9129 17.8814C24.9675 17.9883 25.0049 18.1027 25.0239 18.2205C25.0376 18.3223 25.0281 18.4259 24.9961 18.5239C24.9496 18.6395 24.8907 18.7501 24.8204 18.854C24.7556 18.9566 24.7094 19.0592 24.6493 19.1351C24.4875 19.3626 23.891 19.4473 23.3916 19.1351C23.1986 19.0354 23.0186 18.9141 22.8552 18.7737C22.6841 18.6443 22.5176 18.506 22.3558 18.3677C22.0275 18.0911 21.7131 17.8011 21.4032 17.5022C21.0935 17.2033 20.7882 16.8955 20.4785 16.6099L20.016 16.1415L19.8357 15.9497C19.8357 15.9497 19.8357 15.9497 19.8357 15.9229C19.8357 15.8961 19.8357 15.9229 19.8033 15.9229L19.7247 16.0077L19.5582 16.1727L18.8878 16.8597L18.8462 16.8241Z" fill="white"/>
<path d="M10.473 25.7156C10.6765 25.5683 10.8799 25.43 11.0695 25.2694C11.1389 25.2158 11.1759 25.1356 11.2498 25.0865C11.5042 24.9036 11.777 24.7385 12.0174 24.5511C12.1182 24.464 12.2013 24.3596 12.2625 24.2433C12.3457 24.096 12.3735 23.9087 12.5954 23.8641C12.7342 23.8328 13.7283 24.7028 13.6219 24.8857C13.4247 25.2019 13.1307 25.4513 12.7804 25.5996C12.5538 25.6932 12.4613 25.9029 12.318 26.0457C12.1746 26.1884 11.9527 26.3624 11.7723 26.5186C11.592 26.6747 11.5458 26.7104 11.4394 26.813C11.2778 26.9543 11.1234 27.1032 10.9771 27.2592C10.8753 27.3886 10.8383 27.567 10.7273 27.7053C10.7128 27.7382 10.6925 27.7684 10.6672 27.7946C10.5609 27.8882 10.4637 27.8704 10.2372 27.741L10.08 27.6518C9.93235 27.5698 9.82928 27.4296 9.79794 27.2681C9.77007 27.0727 9.77007 26.8746 9.79794 26.6792C9.84655 26.5244 9.91162 26.3749 9.99209 26.233C10.0892 26.001 10.3158 25.8717 10.4869 25.7022L10.473 25.7156Z" fill="white"/>
<path d="M20.012 27.3394C19.9922 27.4651 19.9483 27.5861 19.8825 27.6963L19.7345 27.9952L19.4293 28.6108C19.3507 28.6867 19.3045 28.8161 19.212 28.8919C19.1943 28.8864 19.1772 28.8788 19.1612 28.8696C18.4074 28.445 17.7063 27.9392 17.0711 27.3617L16.6503 26.978L16.4376 26.7951L16.2712 26.5497C16.1278 26.3578 15.9336 26.233 15.8642 26.1392C15.7636 26.0308 15.688 25.9032 15.6423 25.7645C15.6146 25.6664 15.8088 25.47 16.0631 25.3184C16.3174 25.1667 16.6596 25.015 16.8214 25.0908L17.0248 25.189H17.0526C17.0526 25.189 17.0526 25.189 17.0526 25.2292C17.0724 25.3556 17.1146 25.4778 17.1774 25.5905C17.2147 25.6736 17.2699 25.7482 17.3393 25.8091C17.3901 25.8537 17.4179 25.8448 17.4826 25.9072C17.4975 25.9146 17.5115 25.9236 17.5243 25.934C17.5612 25.934 17.6168 26.0144 17.6537 26.0188C17.6793 26.0098 17.7028 25.9962 17.7231 25.9786C17.7663 25.9414 17.8009 25.8958 17.8248 25.8448C17.8654 25.7588 17.8904 25.6668 17.8988 25.5726C17.9437 25.3682 17.9437 25.157 17.8988 24.9525C17.8592 24.8124 17.7985 24.6786 17.7184 24.5555C17.6538 24.4216 17.5798 24.2878 17.5243 24.145C17.4965 24.0826 17.4503 24.0201 17.4641 23.9532C17.4919 23.69 17.6584 23.5606 18.1393 23.507C18.2464 23.4915 18.3546 23.4826 18.4629 23.4803C18.7629 23.4646 19.0621 23.5229 19.3323 23.6498L19.5496 23.7836C19.6049 23.8285 19.6545 23.8794 19.6976 23.9354C19.7819 24.0408 19.8547 24.1545 19.9149 24.2744C19.957 24.3952 19.9895 24.519 20.012 24.6447V24.7384L20.0397 24.9258L20.0859 25.296C20.1559 25.9844 20.1559 26.6778 20.0859 27.3661L20.012 27.3394Z" fill="white"/>
<path d="M9.33158 7.01328C9.47493 7.01328 9.36858 7.18728 9.12809 7.49515C9.00801 7.63288 8.86786 7.75315 8.71198 7.85208C8.60817 7.88355 8.50123 7.90448 8.39288 7.91448C8.14232 7.80608 7.89843 7.68395 7.66234 7.54868C7.50379 7.46408 7.36524 7.34862 7.25537 7.20962C7.02421 6.94195 6.793 6.68315 6.5618 6.41549C6.51328 6.35145 6.47869 6.27861 6.46007 6.20134C6.39473 5.93942 6.25548 5.70008 6.05778 5.50984C6.03003 5.47414 6.01154 5.42953 5.93756 5.42953C5.86357 5.42953 5.41505 4.8094 5.41042 4.70232C5.37452 4.43888 5.35292 4.17382 5.34569 3.9082C5.34569 3.87251 5.31332 3.84574 5.34569 3.78774C5.41237 3.71368 5.42692 3.6084 5.38268 3.52006C5.35594 3.41348 5.34351 3.30402 5.34569 3.19438C5.36435 3.12145 5.39562 3.05208 5.43817 2.98916C5.47053 2.93116 5.6555 2.88655 5.67861 2.89101C5.70173 2.89547 5.82196 2.84194 5.89594 2.8107L5.96993 2.78394C6.08645 2.8185 6.19944 2.8633 6.30748 2.91778C6.43036 2.9639 6.55075 3.01602 6.66815 3.07392C6.66815 3.07392 6.82074 3.20777 7.00107 3.33715C7.18143 3.46653 7.31091 3.6316 7.35251 3.6539C7.39411 3.67621 7.38951 3.74313 7.39411 3.79221C7.39871 3.84128 7.8889 4.23834 7.90277 4.23834C7.96291 4.34988 8.09232 4.42126 8.04151 4.60864C8.04151 4.64879 8.04151 4.66218 8.06925 4.68448C8.2082 4.86149 8.32321 5.0549 8.41142 5.26C8.47282 5.35612 8.54243 5.44714 8.61951 5.53214C8.61951 5.53214 8.61951 5.57676 8.61951 5.59906C8.61951 5.62137 8.61951 5.66152 8.64257 5.67936C8.78866 5.9058 8.95914 6.11666 9.15123 6.30842C9.2067 6.34411 9.25757 6.68315 9.32231 6.71888C9.38705 6.75455 9.27611 7.01328 9.33158 7.01328Z" fill="white"/>
<path d="M22.5939 5.6704C22.6356 5.8087 22.4182 5.79086 22.0483 5.6704C21.882 5.60246 21.7263 5.51235 21.5859 5.40272C21.5248 5.31927 21.4707 5.23125 21.4241 5.1395C21.4241 5.09488 21.4842 4.55506 21.4934 4.36322C21.5015 4.18711 21.5455 4.01427 21.6229 3.85462C21.7709 3.53341 21.9003 3.20326 22.0437 2.88205C22.0757 2.80713 22.1247 2.74007 22.187 2.68575C22.3961 2.49691 22.5439 2.25359 22.6125 1.98531C22.6125 1.94069 22.6587 1.90501 22.6125 1.83809C22.6469 1.53425 22.758 1.24319 22.9362 0.990427L23.5326 0.468444C23.5604 0.446137 23.5326 0.401523 23.639 0.405985C23.74 0.427156 23.8425 0.37679 23.8841 0.285527C23.9493 0.196505 24.0289 0.118175 24.1199 0.0535364C24.1989 0.0208099 24.2836 0.00265154 24.3696 0C24.4818 0.0202663 24.5869 0.0678727 24.6747 0.138303C24.7256 0.214146 24.8458 0.22753 24.943 0.267682L25.04 0.312296C25.1385 0.569318 25.2007 0.837907 25.225 1.11088C25.225 1.11088 25.1741 1.32949 25.1233 1.55702C25.0724 1.78455 24.9938 2.00315 24.9938 2.06115C24.9938 2.11915 24.9244 2.14146 24.8828 2.17715C24.8412 2.21284 24.6886 2.87312 24.6747 2.89543C24.5915 3.01589 24.5869 3.16757 24.388 3.23449C24.3464 3.23449 24.3418 3.27911 24.3326 3.30587C24.2275 3.52965 24.0955 3.74077 23.9395 3.93493C23.8761 4.0448 23.8189 4.15799 23.7684 4.27399C23.7684 4.2963 23.7268 4.30522 23.7084 4.32307C23.6898 4.34091 23.6528 4.35876 23.6436 4.38553C23.4876 4.64469 23.3516 4.91459 23.2367 5.19303C23.2367 5.26441 22.9038 5.47856 22.8853 5.56333C22.8668 5.64809 22.5755 5.63917 22.5939 5.6704Z" fill="white"/>
<path d="M17.8732 17.3191L16.8744 18.2827C16.7542 18.4032 16.6525 18.5415 16.5323 18.6575C16.1022 19.0769 15.6629 19.4917 15.2468 19.92C15.0619 20.1119 14.8908 20.3171 14.7243 20.5223C14.5249 20.8205 14.2576 21.0707 13.9428 21.254C13.818 21.3165 13.7763 21.1781 13.744 21.0086C13.6775 20.8344 13.6775 20.643 13.744 20.4688C13.914 20.1786 14.1172 19.9077 14.3497 19.6613C14.5857 19.3976 14.8357 19.1459 15.0988 18.9073C15.3928 18.6006 15.6677 18.2773 15.9219 17.9392C16.2271 17.5823 16.5415 17.2343 16.8467 16.8907L17.4524 16.2662C17.7576 15.9494 18.0767 15.6416 18.3773 15.3159C18.6038 15.0616 18.7888 14.7761 19.0292 14.5039C19.0847 14.4459 19.1309 14.379 19.1864 14.3255C19.2701 14.2494 19.3826 14.2101 19.4973 14.2168C19.6121 14.2236 19.7188 14.2758 19.7922 14.3612L19.9032 14.4683C19.9522 14.5346 19.9782 14.6143 19.9772 14.6958C19.9848 14.7927 19.9706 14.8901 19.9356 14.9813C19.888 15.1146 19.8159 15.2385 19.7228 15.3471C19.635 15.4497 19.5471 15.5747 19.45 15.6817C19.2604 15.8959 19.0523 16.1279 18.8396 16.342L17.8825 17.3369L17.8732 17.3191Z" fill="white"/>
</g>
<defs>
<clipPath id="clip0_2_1810">
<rect width="32.67" height="40" fill="white" transform="translate(0.166687)"/>
</clipPath>
</defs>
</svg>
