<svg width="27" height="40" viewBox="0 0 27 40" fill="none" xmlns="http://www.w3.org/2000/svg">
<g clip-path="url(#clip0_2_1830)">
<path d="M8.35719 17.1013C10.1304 17.1013 12.0418 16.8346 14.0669 16.7211C15.1095 16.6495 16.1558 16.6495 17.1984 16.7211C17.7401 16.761 18.2793 16.8302 18.8135 16.9285L19.2185 17.0025C19.3618 17.042 19.505 17.0717 19.6482 17.1161C19.9313 17.191 20.21 17.2817 20.483 17.3877C22.0897 17.9642 23.5065 18.9723 24.5776 20.3013C25.0564 20.9315 25.4224 21.64 25.6593 22.3951C25.9049 23.1786 25.9725 24.007 25.8568 24.8198C25.7994 25.2183 25.7034 25.6102 25.5704 25.9902C25.4266 26.3454 25.2616 26.6917 25.0764 27.0272C24.7039 27.6504 24.2487 28.2202 23.7231 28.7211C22.7281 29.6519 21.5867 30.4127 20.3447 30.9729C19.1602 31.523 17.9244 31.9547 16.6551 32.2618C14.439 32.7896 12.1662 33.0418 9.88835 33.0124C7.01081 33.0022 4.15616 32.5012 1.44722 31.5309C0.632251 31.1457 0.790306 31.0371 1.58552 30.9186C2.83781 30.7674 4.10237 30.7459 5.35908 30.8544C6.05552 30.9136 6.75195 30.9482 7.44344 30.963C8.13493 30.9778 8.82148 31.0173 9.50803 31.0124C10.8693 31.0168 12.2287 30.9111 13.573 30.6964C14.901 30.4864 16.207 30.1558 17.475 29.7087C18.7169 29.276 19.8986 28.6869 20.9917 27.9556C21.6022 27.5352 22.1353 27.0123 22.5673 26.4099C22.9702 25.8736 23.2226 25.2394 23.2983 24.5729C23.4119 23.3433 22.6019 22.1038 21.4362 21.2198C20.7921 20.7254 20.0643 20.3508 19.2877 20.1136C19.1 20.0494 18.9024 20.0248 18.7098 19.9655C18.5172 19.9062 18.285 19.8914 18.0726 19.8519C17.6338 19.7881 17.192 19.7469 16.7489 19.7285C14.8614 19.7051 12.9748 19.8173 11.1034 20.0643C9.86499 20.1981 8.61981 20.2592 7.37429 20.247C6.72483 20.2299 6.0768 20.1772 5.43317 20.089C4.71081 19.9761 4.01574 19.7299 3.3834 19.363C2.29915 18.7749 1.52803 17.7404 1.27435 16.5334C1.07617 15.3704 1.34026 14.1761 2.01029 13.205C2.29567 12.779 2.61619 12.3776 2.9685 12.005C3.30575 11.6487 3.66188 11.3108 4.03537 10.9927C4.40352 10.68 4.78765 10.3866 5.18621 10.1136C5.38378 9.97537 5.58135 9.83216 5.78385 9.70377L6.39632 9.33834C8.93686 7.81048 11.7908 6.87848 14.7436 6.61241C15.4002 6.55048 16.0601 6.53068 16.7193 6.55315C17.2422 6.59542 17.7619 6.67132 18.2751 6.78031C18.6153 6.87261 18.946 6.99661 19.263 7.15068C19.7173 7.35196 20.0542 7.75063 20.1767 8.23216C20.2426 8.42935 20.2873 8.63295 20.3101 8.83957C20.3101 9.15562 20.0384 9.36303 19.6038 9.46179C19.3469 9.5129 19.0853 9.53606 18.8234 9.53093C18.4848 9.5575 18.1445 9.5575 17.8059 9.53093C16.6782 9.48821 15.5489 9.54935 14.4324 9.71364C13.3061 9.90011 12.1974 10.181 11.1182 10.5532C10.0477 10.9482 9.01737 11.4442 8.04108 12.0346C7.0886 12.5839 6.22024 13.2674 5.46281 14.0643C5.32451 14.1976 5.22572 14.3556 5.0973 14.4988L4.91949 14.7161L4.79601 14.8939C4.65583 15.0817 4.54891 15.2922 4.4799 15.5161C4.43031 15.6485 4.41667 15.7916 4.44039 15.9309C4.45557 16.0589 4.50891 16.1794 4.5935 16.2766C4.72489 16.4301 4.88409 16.5575 5.06273 16.6519C5.30842 16.7764 5.57153 16.863 5.84312 16.9087C6.0324 16.9452 6.22375 16.9699 6.41608 16.9828C6.61859 17.0124 6.83097 17.0223 7.04336 17.0322C7.46813 17.0618 7.90772 17.0322 8.35225 17.0322L8.35719 17.1013Z" fill="white"/>
<path d="M9.53757 24.874C9.29061 22.8691 8.98932 20.8641 8.67321 18.8641C8.5596 18.1333 8.36697 17.4172 8.24843 16.6863C7.85823 14.1086 7.42358 11.5308 6.89015 8.97276C6.64319 7.84684 6.39623 6.71103 6.05048 5.61474C5.85291 4.90364 5.61583 4.20734 5.40838 3.50117C5.20094 2.795 5.01325 2.09376 4.88483 1.3629C4.8058 0.903641 5.22563 0.804875 5.77389 1.02216C6.49017 1.31599 7.06524 1.87505 7.37913 2.58265C7.97184 4.01475 8.49539 5.45671 8.93992 6.92338C9.3558 8.40407 9.66613 9.91237 9.86849 11.437C10.0041 12.3617 10.1904 13.2783 10.4266 14.1826C10.639 15.1012 10.8761 16.0197 11.0687 16.9382C11.2614 17.9258 11.4639 18.9678 11.6318 19.9851L12.1257 23.0468L12.6641 26.8246C12.8024 27.7777 12.9308 28.7357 13.0395 29.6938C13.1481 30.6518 13.2815 31.6049 13.405 32.5579C13.5136 33.2937 13.6569 34.0394 13.7804 34.7555C13.9283 35.4868 14.0387 36.2253 14.1113 36.9678C14.1113 37.2987 14.1706 37.6197 14.1755 37.9555C14.1917 38.412 14.1039 38.8663 13.9187 39.2839C13.7803 39.548 13.5448 39.748 13.2617 39.8419C13.1306 39.9013 12.9952 39.9508 12.8567 39.99C12.4171 40.0789 12.0319 39.5703 11.775 38.7357C10.9403 36.2666 10.7131 33.6147 10.3278 30.9234C10.0512 28.9481 9.80429 26.9036 9.4783 24.8888L9.53757 24.874Z" fill="white"/>
<path d="M16.9267 14.6667C16.9694 16.5926 17.06 18.5201 17.1983 20.4494C17.2428 21.1506 17.391 21.842 17.4404 22.5432C17.5243 23.7827 17.6577 25.0123 17.7565 26.2617C17.8552 27.5111 17.9688 28.7309 18.1417 29.9753C18.2938 31.0667 18.5016 32.1495 18.7641 33.2198C18.9172 33.9012 19.1345 34.5679 19.2975 35.2494C19.4559 35.935 19.5747 36.6291 19.6531 37.3284C19.6926 37.7679 19.2975 37.8222 18.7789 37.6049C18.1003 37.2915 17.5607 36.7396 17.2625 36.0543C16.3474 33.2461 15.7623 30.341 15.519 27.3975C15.4301 26.5185 15.3412 25.6296 15.2029 24.7358C15.0646 23.842 14.9411 22.9531 14.8423 22.0642C14.6398 20.0889 14.5065 18.1136 14.3978 16.1383C14.3533 15.5309 14.3435 14.9185 14.3188 14.3111C14.2941 13.7037 14.2496 13.1062 14.2496 12.4988C14.215 10.6568 14.2496 8.80494 14.2496 6.9679C14.2496 6.25679 14.2496 5.55062 14.2496 4.83951C14.2496 4.1284 14.2496 3.42716 14.299 2.70617C14.299 2.39506 14.3237 2.08395 14.3583 1.7679C14.5361 0.587654 14.7781 0.22716 15.2967 0.0888889C15.4147 0.0511299 15.5352 0.021432 15.6573 0C16.0426 0 16.2747 0.493827 16.2895 1.30864C16.334 2.52346 16.413 3.77778 16.5019 5.0321C16.5266 5.65926 16.6056 6.30123 16.6402 6.94321V7.93086L16.6896 8.91852C16.7489 10.8346 16.9069 12.7704 16.9761 14.7062L16.9267 14.6667Z" fill="white"/>
</g>
<defs>
<clipPath id="clip0_2_1830">
<rect width="25.19" height="40" fill="white" transform="translate(0.907471)"/>
</clipPath>
</defs>
</svg>
