<svg width="15" height="19" viewBox="0 0 15 19" fill="none" xmlns="http://www.w3.org/2000/svg">
<g clip-path="url(#clip0_2_1650)">
<mask id="mask0_2_1650" style="mask-type:luminance" maskUnits="userSpaceOnUse" x="1" y="0" width="14" height="19">
<path d="M14.3878 0H1.94336V18.66H14.3878V0Z" fill="white"/>
</mask>
<g mask="url(#mask0_2_1650)">
<path d="M8.16406 9.33078C8.16406 7.63069 9.54276 6.25244 11.2435 6.25244C12.9442 6.25244 14.3229 7.63069 14.3229 9.33078C14.3229 11.0309 12.9442 12.4092 11.2435 12.4092C9.54276 12.4092 8.16406 11.0309 8.16406 9.33078Z" fill="#1ABCFE"/>
<path d="M2.0072 15.4855C2.0072 13.7854 3.38591 12.4072 5.08664 12.4072H8.16607V15.4855C8.16607 17.1857 6.78737 18.5639 5.08664 18.5639C3.38591 18.5639 2.0072 17.1857 2.0072 15.4855Z" fill="#0ACF83"/>
<path d="M8.16406 0.0957031V6.25236H11.2435C12.9443 6.25236 14.3229 4.87415 14.3229 3.17404C14.3229 1.47392 12.9443 0.0957031 11.2435 0.0957031H8.16406Z" fill="#FF7262"/>
<path d="M2.0072 3.17404C2.0072 4.87415 3.38591 6.25236 5.08664 6.25236H8.16607V0.0957031H5.08664C3.38591 0.0957031 2.0072 1.47392 2.0072 3.17404Z" fill="#F24E1E"/>
<path d="M2.0072 9.33078C2.0072 11.0309 3.38591 12.4092 5.08664 12.4092H8.16607V6.25244H5.08664C3.38591 6.25244 2.0072 7.63069 2.0072 9.33078Z" fill="#A259FF"/>
</g>
</g>
<defs>
<clipPath id="clip0_2_1650">
<rect width="14" height="18.66" fill="white" transform="translate(0.972656)"/>
</clipPath>
</defs>
</svg>
