<svg width="120" height="24" viewBox="0 0 120 24" fill="none" xmlns="http://www.w3.org/2000/svg">
<g clip-path="url(#clip0_2_34)">
<path d="M45.9296 7.08693L43.0362 7.86342C42.6589 7.10791 42.3443 6.58326 41.6315 6.16353C41.1492 5.86972 40.5412 5.61789 39.8493 5.61789C39.1365 5.5969 38.4656 5.76479 38.0253 6.03761C37.5011 6.35241 37.2495 6.83509 37.2495 7.29679C37.2495 7.56961 37.3543 7.82145 37.543 8.01033C37.8156 8.30413 38.5074 8.57695 39.2623 8.80782L41.8831 9.56332C43.2249 9.96202 44.0007 10.3608 44.6717 10.9904C45.5732 11.8508 46.0764 12.9631 46.0764 14.2013C46.0764 15.5234 45.3216 16.9086 44.1265 17.706C42.9733 18.4825 41.5895 18.6714 39.9961 18.6714C37.9833 18.6714 36.264 18.1467 35.027 16.6357C34.2932 15.7333 33.8948 14.684 33.6642 13.6976L36.5576 12.9211C36.6834 13.6556 36.935 14.3272 37.3124 14.7889C37.9204 15.6284 39.0946 16.0061 40.1009 16.0061C40.8977 16.0061 41.904 15.7753 42.4492 15.3555C42.9314 14.9988 43.0572 14.537 43.0572 14.1174C43.0572 13.7186 42.9104 13.3409 42.596 13.068C42.2605 12.7742 41.8411 12.5643 41.2541 12.3965L38.4446 11.578C37.3124 11.2632 36.285 10.8225 35.5512 10.1719C34.6496 9.4164 34.2513 8.28315 34.2513 7.23383C34.2513 5.57591 35.3206 4.14885 36.7043 3.51925C37.7946 3.01559 38.8849 2.93164 39.8912 2.93164C40.9186 2.95262 42.0508 3.12051 43.0572 3.66616C44.3362 4.3587 45.3426 5.55493 45.9296 7.08693Z" fill="white"/>
<path d="M54.4748 7.02441H57.3472V18.357H54.8312V17.5805C53.9297 18.2941 52.7974 18.6299 51.7701 18.6719C50.5122 18.7138 49.1703 18.2311 48.2687 17.4126C46.9269 16.1744 46.7382 14.6634 46.7382 12.6907V7.02441H49.6316V12.6907C49.6316 13.719 49.7993 14.6844 50.3863 15.272C50.7847 15.6918 51.3928 15.9017 52.1685 15.9017C52.6927 15.8807 53.133 15.7337 53.5103 15.4609C53.9297 15.1462 54.2232 14.6424 54.349 14.0129C54.4539 13.5092 54.4748 12.7327 54.4748 11.9562V7.02441Z" fill="white"/>
<path d="M68.9679 8.51381C69.8485 9.6261 70.2888 11.1161 70.2888 12.6901C70.2888 14.2431 69.9324 15.6911 68.9679 16.8664C68.0455 18.0206 66.5568 18.6712 65.0682 18.6712C63.9779 18.6712 62.9715 18.4194 62.1538 17.9156V23.3931H59.2814V7.02378H61.7974V7.73732C62.657 7.08674 63.7683 6.70898 64.9214 6.70898C66.4939 6.70898 68.0035 7.31759 68.9679 8.51381ZM66.7036 15.1245C67.102 14.5369 67.2697 13.6554 67.2697 12.6901C67.2697 11.7247 67.06 10.8433 66.6617 10.2557C66.1794 9.52116 65.4455 9.24831 64.5021 9.24831C63.7263 9.24831 63.0554 9.50017 62.5941 10.0458C62.049 10.6754 61.7974 11.6618 61.7974 12.6901C61.7974 13.7184 62.049 14.7258 62.5941 15.3343C63.0973 15.88 63.7892 16.1318 64.6069 16.1318C65.4036 16.1318 66.2214 15.859 66.7036 15.1245Z" fill="white"/>
<path d="M73.8886 10.3611L71.2887 9.12288C71.3516 9.03892 71.4355 8.89209 71.5193 8.78713C72.5467 7.33907 74.0982 6.73047 75.9642 6.73047C78.0399 6.73047 79.7172 7.42302 80.6398 8.97604C81.0797 9.71055 81.2474 10.55 81.2474 11.2425V18.3569H78.7528V16.4261C78.5431 17.0347 77.8513 17.6644 77.348 17.9581C76.5513 18.4409 75.5659 18.6507 74.7063 18.6507C73.595 18.6507 72.4418 18.105 71.8338 17.3915C71.2467 16.5731 70.9532 16.0065 70.9532 15.0201C70.9532 13.8029 71.708 12.6066 72.7774 11.977C74.0353 11.3055 74.9159 11.2845 76.5304 11.0326L78.3544 10.7809C78.2496 10.3401 77.9351 9.96233 77.5157 9.73154C77.0545 9.45869 76.4884 9.35375 75.9013 9.37474C75.1675 9.37474 74.5595 9.54264 74.1192 10.0673C74.0353 10.1512 73.9514 10.2562 73.8886 10.3611ZM78.4173 13.0683L76.3207 13.467C75.1046 13.6979 73.8257 13.9288 73.7837 14.8312C73.7418 15.5027 74.3498 16.0903 75.2723 16.0484C76.4674 16.0065 77.9141 15.4188 78.2706 14.0547C78.3963 13.593 78.4173 13.1733 78.4173 13.0683Z" fill="white"/>
<path d="M88.2636 5.40871C87.1316 5.5766 86.9007 6.18521 86.9007 7.02466H89.9197V9.2282H86.9007V18.3573H84.0493V9.2282H81.7012V7.02466H84.0493C84.0915 6.16422 84.2803 4.98898 85.0978 4.10756C86.293 2.89035 88.0748 2.78542 89.9197 2.9743V5.4297C89.3963 5.34575 88.7667 5.32476 88.2636 5.40871Z" fill="white"/>
<path d="M92.8886 10.3611L90.2884 9.12288C90.3516 9.03892 90.4351 8.89209 90.5193 8.78713C91.5459 7.33907 93.0976 6.73047 94.9637 6.73047C97.0396 6.73047 98.7168 7.42302 99.6397 8.97604C100.08 9.71055 100.247 10.55 100.247 11.2425V18.3569H97.7526V16.4261C97.5427 17.0347 96.8508 17.6644 96.3476 17.9581C95.5511 18.4409 94.5658 18.6507 93.7061 18.6507C92.5944 18.6507 91.4414 18.105 90.8337 17.3915C90.2463 16.5731 89.9529 16.0065 89.9529 15.0201C89.9529 13.8029 90.7073 12.6066 91.7769 11.977C93.0352 11.3055 93.9152 11.2845 95.53 11.0326L97.354 10.7809C97.2494 10.3401 96.935 9.96233 96.5153 9.73154C96.0543 9.45869 95.4879 9.35375 94.9013 9.37474C94.1672 9.37474 93.5595 9.54264 93.1187 10.0673C93.0352 10.1512 92.9509 10.2562 92.8886 10.3611ZM97.4172 13.0683L95.3202 13.467C94.104 13.6979 92.8254 13.9288 92.7832 14.8312C92.7411 15.5027 93.3496 16.0903 94.2717 16.0484C95.4668 16.0065 96.914 15.4188 97.2705 14.0547C97.3961 13.593 97.4172 13.1733 97.4172 13.0683Z" fill="white"/>
<path d="M110.996 10.0248L108.228 10.6965C108.102 10.2977 107.725 9.87801 107.347 9.68911C107.012 9.50022 106.593 9.39528 106.131 9.39528C105.628 9.39528 105.188 9.47923 104.894 9.64714C104.58 9.85702 104.517 10.0458 104.517 10.1718C104.517 10.2767 104.559 10.3607 104.58 10.4236C104.748 10.6335 105.209 10.8223 105.775 10.9902C106.341 11.1581 106.991 11.326 107.557 11.473C108.5 11.7667 109.045 11.8926 109.779 12.5013C110.702 13.2148 111.184 14.1802 111.1 15.3344C111.017 16.4047 110.429 17.3281 109.486 17.9367C108.584 18.5034 107.494 18.6713 106.341 18.6713C104.789 18.6713 103.468 18.2725 102.42 17.1602C101.896 16.5726 101.267 15.3134 101.225 14.7258L103.929 14.0543C103.929 14.39 104.139 15.0196 104.454 15.3344C104.957 15.8801 105.649 15.985 106.341 15.985C106.865 15.985 107.599 15.8801 107.934 15.6072C108.144 15.4183 108.186 15.2924 108.228 15.0826C108.228 14.8727 108.186 14.7258 108.039 14.5789C107.767 14.306 107.243 14.1382 106.865 14.0333C106.257 13.8654 105.67 13.7185 105.041 13.5505C104.014 13.2778 103.385 13.0049 102.797 12.5433C102.022 11.9556 101.623 11.0322 101.623 10.2347C101.623 8.80769 102.504 7.67441 103.699 7.14975C104.58 6.772 105.398 6.68805 106.173 6.70903C106.949 6.70903 107.809 6.87693 108.584 7.27567C109.695 7.8423 110.555 8.82868 110.996 10.0248Z" fill="white"/>
<path d="M119.507 9.22746H116.236V13.3408C116.236 14.2223 116.257 14.8728 116.508 15.2715C116.76 15.6703 117.221 15.9221 117.662 15.9641C118.206 16.0061 118.898 15.9851 119.507 15.9012V18.3565C118.605 18.6084 117.032 18.6504 116.194 18.4195C115.166 18.1257 114.37 17.622 113.93 16.7826C113.448 15.8802 113.384 14.7889 113.384 13.5506V9.22746H111.036V7.02392H113.384V3.87598H116.236V7.02392H119.507V9.22746Z" fill="white"/>
<path d="M5.18186 11.1797H0V21.6567H19.7733C22.6661 21.6567 25.0113 19.3114 25.0113 16.4182C25.0113 13.554 22.7128 11.2266 19.8599 11.1804L7.69177 21.6001L10.26 11.1918L5.18186 11.1797Z" fill="white"/>
<path d="M19.8607 11.1802H25.0113V0.703125H17.319L14.6302 11.1922L19.8617 11.1793L19.8607 11.1802Z" fill="white"/>
<path d="M17.317 0.703125H5.23796C2.34512 0.703125 0 3.04849 0 5.94165C0 8.79288 2.27765 11.1121 5.11255 11.1787L17.317 0.703125Z" fill="white"/>
</g>
<defs>
<clipPath id="clip0_2_34">
<rect width="119.92" height="22.69" fill="white" transform="translate(0 0.703125)"/>
</clipPath>
</defs>
</svg>
