<svg width="50" height="48" viewBox="0 0 50 48" fill="none" xmlns="http://www.w3.org/2000/svg">
<path d="M7.36454 13.6943C8.42996 12.9684 9.61529 12.4366 10.8658 12.1233C12.0633 11.832 13.298 11.7236 14.528 11.8015C16.7129 11.9635 18.8541 12.498 20.8587 13.382C22.6992 14.1832 24.4714 15.1328 26.1579 16.2212L27.3219 16.9783L27.5869 17.1771L28.1262 17.6124C28.255 17.7223 28.3909 17.8235 28.5331 17.9153C28.6656 17.9909 28.8076 18.1519 28.9306 18.0951C28.9306 17.7448 28.8359 17.442 28.8076 17.1486C28.7792 16.8553 28.7224 16.6092 28.6751 16.2874C28.6751 16.2874 28.4858 15.483 28.3818 14.9057C28.2777 14.3284 28.1262 13.6565 28.041 13.0129C27.9559 12.3694 27.8992 11.6312 27.8992 10.9592C27.8992 10.5996 27.8992 10.24 27.8992 9.88035C27.8956 9.51264 27.9242 9.14531 27.9843 8.78253C28.1503 7.20805 28.7244 5.70418 29.6498 4.41965C29.8958 4.10733 30.1419 3.7761 30.4069 3.47325L31.2774 2.6972C31.5695 2.44205 31.8866 2.21693 32.2237 2.02527C32.5549 1.83598 32.8672 1.62778 33.17 1.44796C34.6413 0.744509 36.2826 0.475299 37.9015 0.671917C39.4016 0.896043 40.8278 1.46987 42.0652 2.34704C43.2006 3.13233 44.2064 4.09029 45.046 5.18623C46.528 7.02009 47.672 9.10308 48.4243 11.3378C49.0993 13.5144 49.4843 15.7705 49.5693 18.0478C49.4665 23.6428 48.237 29.1597 45.9545 34.269C45.3016 35.8305 44.7337 35.4141 44.412 33.8431C44.0262 31.4362 43.9657 28.9883 44.2322 26.5653C44.5568 24.0548 44.617 21.5172 44.412 18.9941C44.3457 18.3885 44.289 17.7922 44.2511 17.196C44.2132 16.5997 44.1281 16.013 44.0241 15.4356L43.8631 14.5745L43.6455 13.7322C43.5876 13.4687 43.5117 13.2094 43.4183 12.9561C43.3479 12.7027 43.256 12.4558 43.144 12.2179C42.3246 10.2205 41.0551 8.43916 39.4345 7.01277C38.8178 6.43147 38.0669 6.01202 37.2485 5.79192C36.5027 5.63747 35.7264 5.74791 35.0531 6.10423C34.0764 6.53109 33.3194 7.34285 32.9619 8.34719C32.5978 9.62566 32.5492 10.9733 32.8199 12.2747C32.924 13.0224 33.1037 13.7984 33.293 14.584L34.2393 18.4358C34.3718 19.0887 34.561 19.7891 34.6557 20.4138C34.7503 21.0383 34.8544 21.6535 34.8828 22.2024C34.8889 22.6952 34.8699 23.1879 34.826 23.6788C34.7483 24.0322 34.6471 24.3799 34.5232 24.7199L34.2487 25.193C34.192 25.2783 34.192 25.3539 34.0879 25.4391C33.9928 25.4966 33.8861 25.5321 33.7756 25.5432C33.4362 25.5854 33.093 25.5854 32.7536 25.5432C31.6873 25.4045 30.6707 25.0082 29.7918 24.3886C28.5237 23.5368 27.2463 22.5525 26.0066 21.7292L25.0602 21.1235L24.4073 20.7071L23.2718 20.0068C21.7643 19.1044 20.1811 18.3349 18.5403 17.707C17.0359 17.0991 15.4311 16.7781 13.8089 16.7607C12.9154 16.7675 12.0329 16.9575 11.2159 17.3191C10.8103 17.4954 10.4261 17.7178 10.0709 17.9815L8.89754 18.9279C7.41059 20.2019 6.39426 21.9382 6.01134 23.8586C5.46249 26.622 6.50342 29.7452 8.44331 32.2626C10.446 34.8405 12.9794 36.9577 15.8718 38.471C20.3761 40.8938 25.4387 41.8401 30.5109 42.389C31.6275 42.5026 32.7347 42.531 33.8703 42.6161C38.0812 42.9096 39.4345 43.2692 40.3524 44.5089C40.5821 44.7776 40.7879 45.0658 40.9675 45.3702C41.3839 46.3166 39.5953 47.1589 36.2928 47.405C31.1951 47.7103 26.0818 47.1861 21.1521 45.8528C15.7777 44.4768 10.8248 41.7986 6.73052 38.0545C5.11902 36.5338 3.74144 34.7829 2.64253 32.8589C1.44531 30.761 0.742967 28.4174 0.589069 26.007C0.483602 23.4439 1.14237 20.9074 2.48166 18.7196C3.1 17.6882 3.84029 16.7349 4.68653 15.8805L5.29216 15.2558L5.94509 14.7069C6.40878 14.3473 6.75892 14.0066 7.30776 13.6281L7.36454 13.6943Z" fill="#5A5A5A"/>
</svg>
