<svg width="281" height="52" viewBox="0 0 281 52" fill="none" xmlns="http://www.w3.org/2000/svg">
<g clip-path="url(#clip0_2_1716)">
<path d="M1.34197 12.5318C37.374 11.5277 73.3964 10.4121 109.409 9.18486L217.477 5.60081C237.859 4.93143 258.241 4.12257 278.623 3.57868V0.385117C247.266 4.05283 215.909 8.12499 184.666 12.0437L91.4362 23.6884L38.5285 30.2847C36.362 30.5497 36.2052 33.7572 38.5285 33.7014L143.617 31.3167L173.449 30.6473L172.978 27.2446C150.173 31.1679 127.412 35.082 104.692 38.9868C102.625 39.3494 103.266 42.3338 105.162 42.4314L159.495 44.8859L159.01 41.3157C150.288 43.5331 141.464 45.4995 132.842 48.0515C130.932 48.6233 131.203 51.6635 133.326 51.5658C134.752 51.5658 136.291 51.3846 137.759 51.3706C138.197 51.3706 138.618 51.2002 138.928 50.8968C139.239 50.5934 139.412 50.182 139.412 49.753C139.412 49.3239 139.239 48.9123 138.928 48.609C138.618 48.3056 138.197 48.1352 137.759 48.1352C136.334 48.1352 134.809 48.0376 133.326 47.9957L133.825 51.51C142.619 49.5995 151.285 47.0753 159.994 44.8301C160.426 44.7097 160.8 44.4408 161.046 44.0728C161.292 43.7047 161.394 43.2621 161.333 42.8263C161.273 42.3906 161.053 41.9908 160.716 41.7005C160.378 41.4102 159.945 41.2489 159.495 41.246L105.162 38.9311L105.632 42.3617C128.437 38.4104 151.2 34.4823 173.919 30.5776C175.886 30.2429 175.344 27.133 173.449 27.1748L68.3461 29.6014L38.5285 30.2847V33.7014L132.4 21.9173L226.343 10.1611C243.916 7.95763 261.505 5.80999 279.079 3.46712C280.904 3.23004 280.504 0.259605 278.651 0.329333C242.633 1.84941 206.602 2.88141 170.584 4.13651C134.566 5.39163 98.5345 6.64674 62.5166 7.97158C42.1346 8.74324 21.7525 9.52882 1.3705 10.3284C-0.0548159 10.3284 -0.0548159 12.5178 1.3705 12.476L1.34197 12.5318Z" fill="white" fill-opacity="0.3"/>
</g>
<defs>
<clipPath id="clip0_2_1716">
<rect width="279.96" height="51.24" fill="white" transform="translate(0.301514 0.328125)"/>
</clipPath>
</defs>
</svg>
