<svg width="21" height="22" viewBox="0 0 21 22" fill="none" xmlns="http://www.w3.org/2000/svg">
<g clip-path="url(#clip0_2_57)">
<path d="M18.0392 18.0902H15.0775V13.4494C15.0775 12.3427 15.055 10.9185 13.5342 10.9185C11.99 10.9185 11.7542 12.1227 11.7542 13.3677V18.0902H8.7925V8.54688H11.6375V9.84771H11.6758C12.0733 9.09771 13.04 8.30604 14.4842 8.30604C17.485 8.30604 18.04 10.281 18.04 12.8519L18.0392 18.0902ZM5.4475 7.24104C4.49417 7.24104 3.72833 6.46938 3.72833 5.52021C3.72833 4.57187 4.495 3.80104 5.4475 3.80104C6.3975 3.80104 7.1675 4.57187 7.1675 5.52021C7.1675 6.46938 6.39667 7.24104 5.4475 7.24104ZM6.9325 18.0902H3.9625V8.54688H6.9325V18.0902ZM19.5208 1.04688H2.47583C1.66 1.04688 1 1.69187 1 2.48771V19.606C1 20.4027 1.66 21.0469 2.47583 21.0469H19.5183C20.3333 21.0469 21 20.4027 21 19.606V2.48771C21 1.69187 20.3333 1.04688 19.5183 1.04688H19.5208Z" fill="white"/>
</g>
<defs>
<clipPath id="clip0_2_57">
<rect width="20" height="20" fill="white" transform="translate(1 1.04688)"/>
</clipPath>
</defs>
</svg>
