<svg width="171" height="33" viewBox="0 0 171 33" fill="none" xmlns="http://www.w3.org/2000/svg">
<g clip-path="url(#clip0_2_2050)">
<path d="M65.6146 9.04852L61.5136 10.1491C60.9788 9.07827 60.5329 8.33464 59.5227 7.73973C58.8391 7.3233 57.9773 6.96635 56.9966 6.96635C55.9862 6.93661 55.0353 7.17457 54.4113 7.56126C53.6683 8.00744 53.3117 8.69158 53.3117 9.34598C53.3117 9.73267 53.4604 10.0896 53.7277 10.3573C54.114 10.7737 55.0947 11.1604 56.1646 11.4877L59.8792 12.5585C61.7811 13.1236 62.8806 13.6888 63.8316 14.5811C65.1094 15.8007 65.8227 17.3772 65.8227 19.1322C65.8227 21.0061 64.7528 22.9694 63.0589 24.0997C61.4245 25.2002 59.4632 25.468 57.2046 25.468C54.3518 25.468 51.915 24.7243 50.1617 22.5826C49.1216 21.3036 48.557 19.8163 48.2301 18.4183L52.3311 17.3177C52.5093 18.3588 52.8659 19.3106 53.4009 19.965C54.2627 21.1548 55.9269 21.6903 57.3532 21.6903C58.4825 21.6903 59.9089 21.3631 60.6816 20.7681C61.3651 20.2625 61.5433 19.6081 61.5433 19.0132C61.5433 18.448 61.3354 17.9127 60.8896 17.5259C60.4141 17.1095 59.8198 16.812 58.9877 16.5741L55.0056 15.4141C53.4009 14.9678 51.9448 14.3431 50.9046 13.4211C49.6267 12.3502 49.0622 10.744 49.0622 9.25674C49.0622 6.90686 50.5778 4.88419 52.5391 3.99183C54.0843 3.27795 55.6297 3.15897 57.056 3.15897C58.5122 3.1887 60.117 3.42666 61.5433 4.20004C63.3562 5.18163 64.7825 6.87712 65.6146 9.04852Z" fill="white"/>
<path d="M77.7262 8.95929H81.7974V25.0217H78.2314V23.9212C76.9537 24.9325 75.3488 25.4085 73.8927 25.468C72.1097 25.5273 70.2078 24.8432 68.9299 23.6832C67.0281 21.9282 66.7606 19.7865 66.7606 16.9905V8.95929H70.8616V16.9905C70.8616 18.448 71.0993 19.8163 71.9314 20.6491C72.4961 21.2441 73.3579 21.5416 74.4574 21.5416C75.2003 21.5118 75.8244 21.3036 76.3592 20.9169C76.9537 20.4708 77.3696 19.7568 77.548 18.8645C77.6966 18.1505 77.7262 17.05 77.7262 15.9494V8.95929Z" fill="white"/>
<path d="M98.2683 11.0712C99.5164 12.6477 100.14 14.7596 100.14 16.9905C100.14 19.1917 99.6353 21.2441 98.2683 22.9099C96.9608 24.5458 94.8508 25.468 92.7409 25.468C91.1956 25.468 89.7692 25.111 88.6102 24.397V32.1606H84.5389V8.95931H88.105V9.97065C89.3234 9.04854 90.8985 8.51312 92.5328 8.51312C94.7617 8.51312 96.9013 9.37575 98.2683 11.0712ZM95.0588 20.441C95.6235 19.6081 95.8612 18.3588 95.8612 16.9905C95.8612 15.6222 95.564 14.3729 94.9994 13.5401C94.3159 12.499 93.2757 12.1123 91.9385 12.1123C90.839 12.1123 89.8881 12.4693 89.2342 13.2426C88.4616 14.135 88.105 15.5331 88.105 16.9905C88.105 18.448 88.4616 19.8758 89.2342 20.7384C89.9474 21.5118 90.9281 21.8687 92.0871 21.8687C93.2164 21.8687 94.3754 21.4821 95.0588 20.441Z" fill="white"/>
<path d="M105.243 13.6888L101.558 11.9338C101.647 11.8148 101.766 11.6066 101.884 11.4579C103.341 9.40546 105.54 8.54285 108.184 8.54285C111.126 8.54285 113.504 9.52444 114.811 11.7256C115.435 12.7667 115.673 13.9565 115.673 14.9381V25.0217H112.137V22.2851C111.84 23.1477 110.859 24.0402 110.146 24.4565C109.017 25.1407 107.62 25.4382 106.402 25.4382C104.826 25.4382 103.192 24.6648 102.33 23.6534C101.498 22.4934 101.082 21.6903 101.082 20.2923C101.082 18.567 102.152 16.8715 103.668 15.9791C105.45 15.0273 106.699 14.9976 108.987 14.6406L111.572 14.2837C111.424 13.659 110.978 13.1236 110.384 12.7965C109.73 12.4097 108.927 12.261 108.095 12.2907C107.055 12.2907 106.193 12.5287 105.569 13.2723C105.45 13.3913 105.332 13.54 105.243 13.6888ZM111.661 17.5259L108.69 18.091C106.966 18.4183 105.153 18.7455 105.094 20.0245C105.035 20.9764 105.896 21.8092 107.204 21.7498C108.898 21.6903 110.948 20.8574 111.453 18.924C111.632 18.2695 111.661 17.6747 111.661 17.5259Z" fill="white"/>
<path d="M125.617 6.66891C124.013 6.90687 123.685 7.76949 123.685 8.9593H127.965V12.0825H123.685V25.0217H119.644V12.0825H116.316V8.9593H119.644C119.704 7.73975 119.971 6.07401 121.13 4.82471C122.824 3.09948 125.35 2.95075 127.965 3.21846V6.69866C127.223 6.57968 126.33 6.54993 125.617 6.66891Z" fill="white"/>
<path d="M132.172 13.6888L128.487 11.9338C128.577 11.8148 128.695 11.6066 128.814 11.4579C130.269 9.40546 132.469 8.54285 135.114 8.54285C138.056 8.54285 140.433 9.52444 141.741 11.7256C142.365 12.7667 142.603 13.9565 142.603 14.9381V25.0217H139.067V22.2851C138.769 23.1477 137.788 24.0402 137.075 24.4565C135.946 25.1407 134.55 25.4382 133.331 25.4382C131.756 25.4382 130.121 24.6648 129.26 23.6534C128.427 22.4934 128.012 21.6903 128.012 20.2923C128.012 18.567 129.081 16.8715 130.597 15.9791C132.38 15.0273 133.628 14.9976 135.916 14.6406L138.502 14.2837C138.353 13.659 137.908 13.1236 137.313 12.7965C136.659 12.4097 135.857 12.261 135.025 12.2907C133.985 12.2907 133.123 12.5287 132.499 13.2723C132.38 13.3913 132.261 13.54 132.172 13.6888ZM138.591 17.5259L135.619 18.091C133.895 18.4183 132.083 18.7455 132.023 20.0245C131.963 20.9764 132.826 21.8092 134.133 21.7498C135.827 21.6903 137.878 20.8574 138.383 18.924C138.561 18.2695 138.591 17.6747 138.591 17.5259Z" fill="white"/>
<path d="M157.837 13.2128L153.914 14.1648C153.736 13.5995 153.201 13.0047 152.665 12.737C152.19 12.4692 151.596 12.3205 150.942 12.3205C150.228 12.3205 149.605 12.4395 149.189 12.6775C148.743 12.9749 148.654 13.2426 148.654 13.4211C148.654 13.5698 148.714 13.6888 148.743 13.778C148.981 14.0755 149.635 14.3431 150.437 14.5811C151.239 14.8191 152.16 15.0571 152.963 15.2653C154.3 15.6817 155.072 15.8602 156.113 16.7229C157.42 17.7342 158.104 19.1025 157.985 20.7384C157.867 22.2554 157.034 23.5642 155.697 24.4268C154.419 25.23 152.873 25.468 151.239 25.468C149.04 25.468 147.168 24.9027 145.682 23.3262C144.939 22.4934 144.047 20.7086 143.988 19.8758L147.821 18.924C147.821 19.3998 148.119 20.2923 148.564 20.7384C149.277 21.5118 150.258 21.6606 151.239 21.6606C151.982 21.6606 153.022 21.5118 153.498 21.1251C153.795 20.8574 153.854 20.6789 153.914 20.3815C153.914 20.084 153.854 19.8758 153.646 19.6676C153.26 19.2808 152.517 19.043 151.982 18.8942C151.121 18.6562 150.288 18.448 149.397 18.21C147.941 17.8234 147.049 17.4367 146.217 16.7823C145.118 15.9494 144.553 14.6406 144.553 13.5103C144.553 11.4877 145.801 9.8814 147.495 9.13775C148.743 8.60235 149.902 8.48337 151.001 8.5131C152.101 8.5131 153.32 8.75108 154.419 9.31623C155.994 10.1194 157.212 11.5174 157.837 13.2128Z" fill="white"/>
<path d="M169.9 12.0825H165.264V17.9127C165.264 19.162 165.294 20.084 165.65 20.6491C166.007 21.2143 166.66 21.5713 167.285 21.6308C168.057 21.6903 169.038 21.6606 169.9 21.5416V25.0217C168.622 25.3787 166.393 25.4382 165.204 25.111C163.748 24.6945 162.619 23.9807 161.995 22.7909C161.312 21.5118 161.222 19.965 161.222 18.21V12.0825H157.894V8.95928H161.222V4.4975H165.264V8.95928H169.9V12.0825Z" fill="white"/>
<path d="M7.86031 14.8498H0.515747V29.6995H28.5416C32.6418 29.6995 35.9657 26.3753 35.9657 22.2747C35.9657 18.215 32.708 14.9163 28.6644 14.8508L11.4178 29.6192L15.0578 14.8669L7.86031 14.8498Z" fill="white"/>
<path d="M28.6655 14.8498H35.9657V0H25.0631L21.2521 14.8669L28.667 14.8485L28.6655 14.8498Z" fill="white"/>
<path d="M25.0602 0H7.93983C3.83963 0 0.515747 3.32424 0.515747 7.42489C0.515747 11.4661 3.74399 14.7533 7.76208 14.8477L25.0602 0Z" fill="white"/>
</g>
<defs>
<clipPath id="clip0_2_2050">
<rect width="169.97" height="32.16" fill="white" transform="translate(0.515747)"/>
</clipPath>
</defs>
</svg>
