<svg width="22" height="41" viewBox="0 0 22 41" fill="none" xmlns="http://www.w3.org/2000/svg">
<g clip-path="url(#clip0_2_1749)">
<path d="M17.4984 2.77305C18.9248 3.84981 19.9878 5.33676 20.5451 7.03459C21.0482 8.60761 21.166 10.2784 20.8888 11.9064C20.7298 13.0198 20.421 14.1065 19.9707 15.1372C19.1433 16.8239 18.0408 18.3612 16.7085 19.6859C15.4607 20.9178 14.1492 22.0835 12.7794 23.1782C11.6266 24.1213 10.5464 25.1499 9.54799 26.2551C8.91196 26.9372 8.39904 27.6961 7.83482 28.4397C7.2706 29.1833 6.74741 29.9372 6.19858 30.7218C5.86518 31.1936 5.47535 30.9474 5.26505 30.2602C5.01569 29.2871 5.14973 28.2554 5.63949 27.3782C6.72725 25.5882 8.06979 23.9661 9.62493 22.5628C11.1022 21.1833 12.605 19.9577 13.9951 18.6807C14.8235 17.9321 15.5403 17.0686 16.1237 16.1166C16.6618 15.1763 17.0788 14.1718 17.365 13.1269C17.6778 12.0449 17.76 10.9093 17.6061 9.79356C17.5327 9.26305 17.386 8.74525 17.1701 8.2551C16.9648 7.77254 16.6862 7.32454 16.3443 6.9269C15.921 6.40582 15.4171 5.9557 14.8517 5.59357C14.2631 5.24539 13.6223 4.99431 12.9538 4.84998C10.7971 4.40009 8.5505 4.87237 6.75767 6.15254C5.44343 7.203 4.48956 8.6371 4.0289 10.2551C3.90067 10.5936 3.86989 10.9577 3.75705 11.2807C3.38261 12.5731 3.13641 12.9679 2.21827 13.2038C2.01289 13.2715 1.80399 13.328 1.5925 13.373C1.24456 13.439 0.891904 13.2841 0.705132 12.9833C0.578525 12.7848 0.481747 12.5688 0.417893 12.3423C0.355898 12.0504 0.321551 11.7534 0.315308 11.4551C0.354791 9.35987 1.02708 7.32551 2.24391 5.61921C3.554 3.75731 5.40048 2.33875 7.53732 1.55254C10.8609 0.277793 14.5973 0.702648 17.5497 2.691L17.4984 2.77305Z" fill="white"/>
<path d="M6.59358 36.4858C6.68817 36.7431 6.72664 37.0176 6.70643 37.2909L6.67565 37.7114C6.67565 37.8499 6.6141 37.9935 6.58332 38.1319L6.48074 38.5371C6.4159 38.6691 6.34399 38.7975 6.26531 38.9217C6.12918 39.1748 5.95632 39.4063 5.75238 39.6089C5.61389 39.7524 5.49079 39.9166 5.35742 40.055C5.22406 40.1935 5.04453 40.2653 4.88553 40.3525C4.32787 40.5666 3.70104 40.4978 3.20313 40.1678C3.09541 40.0807 2.99283 39.9781 2.89024 39.8858C2.78766 39.7935 2.7261 39.6601 2.64404 39.5524C2.53552 39.3434 2.44954 39.1233 2.38757 38.896C2.27854 38.537 2.20804 38.1674 2.17727 37.7935C2.07883 37.2995 2.21954 36.7881 2.55684 36.414C2.66968 36.3012 2.95179 36.5166 3.22364 36.7576C3.49549 36.9986 3.79812 37.2294 3.81864 37.3422C3.83905 37.5631 3.88202 37.7813 3.94687 37.9935C4.00329 38.2089 4.09562 38.3832 4.0392 38.5063C4.03625 38.547 4.05079 38.5871 4.07918 38.6164C4.10757 38.6458 4.14713 38.6617 4.18795 38.6601C4.26435 38.6451 4.33525 38.6097 4.39312 38.5576C4.5673 38.4341 4.69113 38.2521 4.74191 38.0448C4.81647 37.7253 4.63359 37.4019 4.32131 37.3012C4.22795 37.2623 4.12014 37.2919 4.05971 37.373C3.94174 37.4858 3.94174 37.7371 3.96739 37.9883C3.97426 38.0411 3.97426 38.0946 3.96739 38.1473C3.89045 38.3371 3.67502 38.3422 3.0236 38.255L2.58248 38.1986C2.15352 38.1842 1.76983 37.9279 1.59254 37.5371C1.54079 37.4081 1.51298 37.2709 1.51047 37.1319C1.51773 36.9891 1.53487 36.8468 1.56176 36.7063C1.63018 36.3963 1.75351 36.1011 1.92594 35.8345C2.03911 35.6859 2.16251 35.5454 2.29525 35.414C2.44146 35.2637 2.61572 35.1435 2.80817 35.0601C3.00841 34.9489 3.2247 34.8693 3.44933 34.8242C3.66287 34.772 3.88109 34.7411 4.10075 34.7319C5.34203 34.7319 6.15247 35.5627 6.66539 36.4448L6.59358 36.4858Z" fill="white"/>
</g>
<defs>
<clipPath id="clip0_2_1749">
<rect width="21.03" height="40" fill="white" transform="translate(0.315308 0.828125)"/>
</clipPath>
</defs>
</svg>
