<svg width="18" height="18" viewBox="0 0 18 18" fill="none" xmlns="http://www.w3.org/2000/svg">
<g clip-path="url(#clip0_2_1664)">
<path d="M4.09063 11.5636C4.09063 12.5431 3.29049 13.3432 2.311 13.3432C1.33151 13.3432 0.531372 12.5431 0.531372 11.5636C0.531372 10.5843 1.33151 9.78418 2.311 9.78418H4.09063V11.5636Z" fill="#E01E5A"/>
<path d="M4.98584 11.5636C4.98584 10.5843 5.78598 9.78418 6.76547 9.78418C7.74495 9.78418 8.5451 10.5843 8.5451 11.5636V16.0194C8.5451 16.9987 7.74495 17.7988 6.76547 17.7988C5.78598 17.7988 4.98584 16.9987 4.98584 16.0194V11.5636Z" fill="#E01E5A"/>
<path d="M6.76547 4.41838C5.78598 4.41838 4.98584 3.6183 4.98584 2.63888C4.98584 1.65946 5.78598 0.859375 6.76547 0.859375C7.74495 0.859375 8.5451 1.65946 8.5451 2.63888V4.41838H6.76547Z" fill="#36C5F0"/>
<path d="M6.76696 5.31543C7.74645 5.31543 8.54659 6.11552 8.54659 7.09493C8.54659 8.07435 7.74645 8.87444 6.76696 8.87444H2.311C1.33151 8.87444 0.531372 8.07435 0.531372 7.09493C0.531372 6.11552 1.33151 5.31543 2.311 5.31543H6.76696Z" fill="#36C5F0"/>
<path d="M13.9114 7.09493C13.9114 6.11552 14.7115 5.31543 15.691 5.31543C16.6705 5.31543 17.4706 6.11552 17.4706 7.09493C17.4706 8.07435 16.6705 8.87444 15.691 8.87444H13.9114V7.09493Z" fill="#2EB67D"/>
<path d="M13.0162 7.09453C13.0162 8.07395 12.216 8.87404 11.2365 8.87404C10.2571 8.87404 9.45691 8.07395 9.45691 7.09453V2.63888C9.45691 1.65946 10.2571 0.859375 11.2365 0.859375C12.216 0.859375 13.0162 1.65946 13.0162 2.63888V7.09453Z" fill="#2EB67D"/>
<path d="M11.2365 14.2407C12.216 14.2407 13.0162 15.0408 13.0162 16.0202C13.0162 16.9996 12.216 17.7997 11.2365 17.7997C10.2571 17.7997 9.45691 16.9996 9.45691 16.0202V14.2407H11.2365Z" fill="#ECB22E"/>
<path d="M11.2365 13.3432C10.2571 13.3432 9.45691 12.5431 9.45691 11.5636C9.45691 10.5843 10.2571 9.78418 11.2365 9.78418H15.6925C16.672 9.78418 17.4721 10.5843 17.4721 11.5636C17.4721 12.5431 16.672 13.3432 15.6925 13.3432H11.2365Z" fill="#ECB22E"/>
</g>
<defs>
<clipPath id="clip0_2_1664">
<rect width="18" height="16.94" fill="white" transform="translate(0.00195312 0.859375)"/>
</clipPath>
</defs>
</svg>
