<svg width="41" height="38" viewBox="0 0 41 38" fill="none" xmlns="http://www.w3.org/2000/svg">
<g clip-path="url(#clip0_2_1759)">
<path d="M2.83566 36.7783C14.9479 33.1814 26.662 27.5518 39.1456 25.3991C41.5292 24.9849 40.5231 21.3063 38.1448 21.7204C25.6612 23.9003 13.931 29.5028 1.83483 33.0943C-0.495074 33.7809 0.500381 37.465 2.83566 36.7783Z" fill="white"/>
<path d="M3.00223 9.40458C3.708 10.7631 4.92399 11.7766 6.37601 12.2167C7.12876 12.4463 7.94529 12.2603 8.52836 11.7262C9.10754 11.0286 9.30895 10.0862 9.06644 9.20839C8.74759 7.82657 7.97556 6.59508 6.87643 5.71506C6.34425 5.1788 5.63525 4.8605 4.88552 4.82129C3.93402 4.88382 3.16801 5.63655 3.07757 6.59793C2.90833 7.32096 3.31932 8.05358 4.01921 8.27647C4.64877 8.45086 5.57427 8.05848 5.67112 7.32275C5.70216 7.22175 5.72201 7.11756 5.73031 7.01211C5.7626 6.90857 5.73031 6.93581 5.69266 7.10476L5.3698 7.4263C5.21419 7.51383 5.0355 7.55003 4.85862 7.52985C4.76177 7.52985 4.82634 7.6116 4.69181 7.48625C4.751 7.53529 5.17071 7.81868 4.977 7.65519C5.14256 7.79746 5.30061 7.94845 5.45051 8.10753C5.60656 8.27102 5.75185 8.43996 5.89175 8.61436C6.16078 8.9468 5.7626 8.41817 5.99398 8.7506L6.13388 8.9468C6.22536 9.08304 6.2953 9.25199 6.39216 9.38278C6.48901 9.51358 6.32759 9.13754 6.36526 9.31194C6.40292 9.48634 6.45135 9.61712 6.47826 9.76972C6.52668 10.0586 6.47826 9.50813 6.47826 9.93867C6.47826 10.0531 6.5482 10.2003 6.47826 10.1076C6.47826 10.0204 6.47826 10.0095 6.47826 10.0804C6.47826 10.1512 6.47826 10.1403 6.52668 9.95501C6.61384 9.81834 6.73679 9.7089 6.88181 9.63893C7.07552 9.54083 6.69349 9.63893 7.09167 9.58988C6.86029 9.58988 7.29615 9.64983 7.13471 9.58988L6.89796 9.52993C6.65582 9.45908 7.00558 9.58988 6.86029 9.52993C6.19301 9.22627 5.6495 8.69889 5.32138 8.03668C4.53039 6.47803 2.20587 7.85683 3.00223 9.41548V9.40458Z" fill="white"/>
<path d="M22.239 4.45581C22.3066 5.22305 22.117 5.99096 21.7009 6.63573C21.7924 6.52129 21.5771 6.76108 21.5664 6.78288C21.6471 6.63573 21.5664 6.75019 21.6524 6.73383C21.9538 6.66844 22.0614 6.79922 22.3304 6.84283L22.3736 6.91368C22.3289 6.8478 22.2893 6.77857 22.2551 6.70658C22.2182 6.64254 22.1877 6.575 22.1637 6.50494C22.1152 6.38504 22.1044 6.2379 22.0453 6.12345C21.9861 6.00901 22.0453 6.39594 22.0453 6.24335C22.0776 5.93271 22.0453 5.61117 22.0453 5.30053L22.1044 5.00624C22.1044 5.10434 22.1044 5.14794 22.1044 5.00624C22.1421 4.79914 22.1798 4.59206 22.2337 4.38496C22.275 4.21285 22.3271 4.04356 22.3897 3.87813C22.3143 4.10157 22.4489 3.70919 22.3897 3.87813C22.3897 3.82363 22.465 3.77458 22.4866 3.72008C22.422 3.92173 22.4434 3.80729 22.3573 3.86723C22.1253 4.0302 21.8358 4.08567 21.561 4.01983C21.3942 4.01983 21.2651 3.79639 21.5072 4.09067C22.0376 4.61259 22.8817 4.61259 23.412 4.09067C23.9218 3.55121 23.9218 2.7009 23.412 2.16144C22.94 1.49123 22.1171 1.1733 21.3242 1.35486C20.6122 1.63849 20.0726 2.24361 19.8661 2.98981C19.3798 4.19731 19.229 5.5166 19.4302 6.80468C19.7692 8.48868 21.3136 10.2435 23.0677 9.07725C24.4237 8.17803 25.064 6.05806 24.9294 4.49396C24.9151 3.74758 24.3211 3.146 23.5842 3.1315C22.8437 3.13744 22.2449 3.74397 22.239 4.49396V4.45581Z" fill="white"/>
</g>
<defs>
<clipPath id="clip0_2_1759">
<rect width="40" height="36.67" fill="white" transform="translate(0.507996 0.494873)"/>
</clipPath>
</defs>
</svg>
