<svg width="51" height="45" viewBox="0 0 51 45" fill="none" xmlns="http://www.w3.org/2000/svg">
<g clip-path="url(#clip0_2_1711)">
<path d="M42.6036 37.3687C40.929 38.9919 39 40.3298 36.893 41.3295C34.8353 42.2912 32.6657 42.9925 30.4345 43.4172C28.8457 43.7546 27.2313 43.9568 25.6084 44.0221C19.9 44.1534 14.2798 42.5969 9.45234 39.5474C7.31331 38.1904 5.40151 36.5048 3.7873 34.5526C2.73985 33.2957 1.86491 31.9046 1.18567 30.4162C0.589379 28.8954 0.284884 27.2759 0.288111 25.6423C0.288111 24.6343 0.984046 24.7318 1.84909 25.3757C2.94741 26.2241 3.89318 27.2535 4.64583 28.4194C5.75001 30.837 7.38382 32.9754 9.42632 34.6761C11.5618 36.475 13.9789 37.9099 16.5808 38.923C19.7873 40.2239 23.5271 40.3799 27.0394 40.0678C30.925 39.8125 34.6632 38.4817 37.8361 36.224C39.7607 34.8016 41.3835 33.0109 42.61 30.9559C44.5097 27.7526 45.6634 24.1626 45.9857 20.4523C46.184 17.5887 45.9914 14.7115 45.4133 11.8999C45.2962 11.282 45.1336 10.6837 45.0165 10.0658C44.7304 7.75046 44.8019 6.98301 45.7646 6.21556C45.9407 6.04155 46.1275 5.87864 46.3239 5.72778C46.8702 5.33755 48.0214 6.09849 48.6848 7.88053C49.215 9.20566 49.5926 10.5869 49.81 11.9974C50.059 13.4358 50.209 14.8896 50.2589 16.3484C50.3622 19.3622 50.0492 22.3759 49.3288 25.3041C48.2665 29.8815 45.9645 34.078 42.6751 37.4337L42.6036 37.3687Z" fill="white"/>
<path d="M12.8682 7.76388C13.1089 9.87115 14.4161 12.5312 16.4389 13.4612C17.3104 13.8644 18.6048 13.6108 18.8259 12.4921C19.1254 10.5204 18.7225 8.5062 17.6877 6.80132C17.2727 5.98458 16.6573 5.28644 15.8991 4.77214C15.3447 4.48196 14.6867 4.46656 14.1195 4.73047C13.5521 4.99437 13.14 5.50749 13.0048 6.11843C12.4194 8.12809 15.5544 8.98659 16.1397 6.97692L16.2112 6.71677L15.4633 7.69234L15.0795 7.8029L13.9479 7.32812C15.0471 8.20614 15.9837 10.1963 15.7039 11.6272L18.091 10.6515C17.0567 10.0131 16.3462 8.96157 16.1397 7.76388C16.1126 6.87736 15.4003 6.16502 14.5137 6.13793C13.6187 6.14501 12.8948 6.86884 12.8877 7.76388H12.8682Z" fill="white"/>
<path d="M22.7159 3.41211C22.9631 5.56485 24.3159 8.43953 26.3842 9.40859C27.2558 9.81183 28.5566 9.55167 28.7713 8.43302C29.0609 6.37897 28.6312 4.28794 27.555 2.51459C27.139 1.68367 26.5164 0.973693 25.7469 0.452883C25.1988 0.162324 24.5473 0.1411 23.9815 0.395374C23.4157 0.649648 22.9991 1.15092 22.8525 1.75364C22.2672 3.76981 25.4087 4.62831 25.9875 2.61865L26.0656 2.35849L25.3175 3.33406L24.9273 3.44462L23.7761 2.96985C24.9208 3.88688 25.9224 6.07865 25.6363 7.56152L28.0232 6.59245C27.0347 6.13069 26.072 4.47222 25.968 3.4056C25.7338 1.35041 22.4753 1.32439 22.7159 3.4056V3.41211Z" fill="white"/>
</g>
<defs>
<clipPath id="clip0_2_1711">
<rect width="49.99" height="44.22" fill="white" transform="translate(0.288086 0.21875)"/>
</clipPath>
</defs>
</svg>
