<svg width="97" height="17" viewBox="0 0 97 17" fill="none" xmlns="http://www.w3.org/2000/svg">
<path d="M16.0207 7.01777C15.9696 6.85228 15.8729 6.70617 15.7427 6.59764C15.6125 6.48912 15.4546 6.42298 15.2886 6.40748L10.6706 5.96996L8.84449 1.5099C8.77896 1.35014 8.66994 1.21396 8.53094 1.11825C8.39193 1.02254 8.22907 0.971517 8.06253 0.971497C7.89589 0.971515 7.73294 1.02263 7.59391 1.1185C7.45489 1.21436 7.34593 1.35075 7.28057 1.5107L5.45442 5.96996L0.835748 6.40757C0.670004 6.42341 0.512359 6.48966 0.382361 6.59812C0.252362 6.70657 0.155726 6.85245 0.104433 7.01768C0.0527378 7.18294 0.0487507 7.36041 0.092968 7.52802C0.137185 7.69562 0.227655 7.84596 0.353121 7.96033L3.84379 11.1548L2.81451 15.8862C2.77738 16.0559 2.78893 16.2333 2.84772 16.3962C2.90652 16.5591 3.00994 16.7003 3.14513 16.8023C3.28989 16.9121 3.46422 16.9714 3.64318 16.9715C3.79684 16.9714 3.94754 16.9276 4.07918 16.8449L8.06262 14.3606L12.0446 16.8449C12.1872 16.9344 12.3519 16.978 12.5181 16.9705C12.6843 16.9629 12.8448 16.9044 12.9793 16.8023C13.1145 16.7003 13.2179 16.559 13.2767 16.3962C13.3355 16.2333 13.3471 16.0559 13.3101 15.8862L12.2808 11.1548L15.7714 7.96104C15.897 7.84659 15.9876 7.69616 16.0319 7.52844C16.0762 7.36073 16.0724 7.18312 16.0208 7.01768L16.0207 7.01777Z" fill="#FBBF24"/>
<path d="M35.6145 7.01777C35.5633 6.85228 35.4666 6.70617 35.3364 6.59764C35.2063 6.48912 35.0483 6.42298 34.8824 6.40748L30.2644 5.96996L28.4382 1.5099C28.3727 1.35014 28.2637 1.21396 28.1247 1.11825C27.9857 1.02254 27.8228 0.971517 27.6563 0.971497C27.4896 0.971515 27.3267 1.02263 27.1877 1.1185C27.0486 1.21436 26.9397 1.35075 26.8743 1.5107L25.0482 5.96996L20.4295 6.40757C20.2638 6.42341 20.1061 6.48966 19.9761 6.59812C19.8461 6.70657 19.7495 6.85245 19.6982 7.01768C19.6465 7.18294 19.6425 7.36041 19.6867 7.52802C19.7309 7.69562 19.8214 7.84596 19.9469 7.96033L23.4375 11.1548L22.4083 15.8862C22.3711 16.0559 22.3827 16.2333 22.4415 16.3962C22.5003 16.5591 22.6037 16.7003 22.7389 16.8023C22.8836 16.9121 23.058 16.9714 23.2369 16.9715C23.3906 16.9714 23.5413 16.9276 23.6729 16.8449L27.6564 14.3606L31.6384 16.8449C31.7809 16.9344 31.9456 16.978 32.1119 16.9705C32.2781 16.9629 32.4385 16.9044 32.5731 16.8023C32.7082 16.7003 32.8116 16.559 32.8704 16.3962C32.9293 16.2333 32.9409 16.0559 32.9039 15.8862L31.8745 11.1548L35.3652 7.96104C35.4907 7.84659 35.5813 7.69616 35.6257 7.52844C35.67 7.36073 35.6661 7.18312 35.6145 7.01768L35.6145 7.01777Z" fill="#FBBF24"/>
<path d="M55.2082 7.01777C55.1571 6.85228 55.0604 6.70617 54.9302 6.59764C54.8 6.48912 54.6421 6.42298 54.4761 6.40748L49.8581 5.96996L48.032 1.5099C47.9665 1.35014 47.8574 1.21396 47.7184 1.11825C47.5794 1.02254 47.4166 0.971517 47.25 0.971497C47.0834 0.971515 46.9204 1.02263 46.7814 1.1185C46.6424 1.21436 46.5334 1.35075 46.4681 1.5107L44.6419 5.96996L40.0232 6.40757C39.8575 6.42341 39.6999 6.48966 39.5699 6.59812C39.4399 6.70657 39.3432 6.85245 39.2919 7.01768C39.2402 7.18294 39.2363 7.36041 39.2805 7.52802C39.3247 7.69562 39.4152 7.84596 39.5406 7.96033L43.0313 11.1548L42.002 15.8862C41.9649 16.0559 41.9764 16.2333 42.0352 16.3962C42.094 16.5591 42.1974 16.7003 42.3326 16.8023C42.4774 16.9121 42.6517 16.9714 42.8307 16.9715C42.9843 16.9714 43.135 16.9276 43.2667 16.8449L47.2501 14.3606L51.2321 16.8449C51.3747 16.9344 51.5394 16.978 51.7056 16.9705C51.8718 16.9629 52.0323 16.9044 52.1668 16.8023C52.302 16.7003 52.4054 16.559 52.4642 16.3962C52.523 16.2333 52.5346 16.0559 52.4976 15.8862L51.4683 11.1548L54.9589 7.96104C55.0845 7.84659 55.1751 7.69616 55.2194 7.52844C55.2637 7.36073 55.2599 7.18312 55.2083 7.01768L55.2082 7.01777Z" fill="#FBBF24"/>
<path d="M74.802 7.01777C74.7508 6.85228 74.6541 6.70617 74.5239 6.59764C74.3938 6.48912 74.2358 6.42298 74.0699 6.40748L69.4519 5.96996L67.6257 1.5099C67.5602 1.35014 67.4512 1.21396 67.3122 1.11825C67.1732 1.02254 67.0103 0.971517 66.8438 0.971497C66.6771 0.971515 66.5142 1.02263 66.3752 1.1185C66.2361 1.21436 66.1272 1.35075 66.0618 1.5107L64.2357 5.96996L59.617 6.40757C59.4513 6.42341 59.2936 6.48966 59.1636 6.59812C59.0336 6.70657 58.937 6.85245 58.8857 7.01768C58.834 7.18294 58.83 7.36041 58.8742 7.52802C58.9184 7.69562 59.0089 7.84596 59.1344 7.96033L62.625 11.1548L61.5958 15.8862C61.5586 16.0559 61.5702 16.2333 61.629 16.3962C61.6878 16.5591 61.7912 16.7003 61.9264 16.8023C62.0711 16.9121 62.2455 16.9714 62.4244 16.9715C62.5781 16.9714 62.7288 16.9276 62.8604 16.8449L66.8439 14.3606L70.8259 16.8449C70.9684 16.9344 71.1331 16.978 71.2994 16.9705C71.4656 16.9629 71.626 16.9044 71.7606 16.8023C71.8957 16.7003 71.9991 16.559 72.0579 16.3962C72.1168 16.2333 72.1284 16.0559 72.0914 15.8862L71.062 11.1548L74.5527 7.96104C74.6782 7.84659 74.7688 7.69616 74.8132 7.52844C74.8575 7.36073 74.8536 7.18312 74.802 7.01768L74.802 7.01777Z" fill="#FBBF24"/>
<path d="M94.3957 7.01777C94.3446 6.85228 94.2479 6.70617 94.1177 6.59764C93.9875 6.48912 93.8296 6.42298 93.6636 6.40748L89.0456 5.96996L87.2195 1.5099C87.154 1.35014 87.0449 1.21396 86.9059 1.11825C86.7669 1.02254 86.6041 0.971517 86.4375 0.971497C86.2709 0.971515 86.1079 1.02263 85.9689 1.1185C85.8299 1.21436 85.7209 1.35075 85.6556 1.5107L83.8294 5.96996L79.2107 6.40757C79.045 6.42341 78.8874 6.48966 78.7574 6.59812C78.6274 6.70657 78.5307 6.85245 78.4794 7.01768C78.4277 7.18294 78.4238 7.36041 78.468 7.52802C78.5122 7.69562 78.6027 7.84596 78.7281 7.96033L82.2188 11.1548L81.1895 15.8862C81.1524 16.0559 81.1639 16.2333 81.2227 16.3962C81.2815 16.5591 81.3849 16.7003 81.5201 16.8023C81.6649 16.9121 81.8392 16.9714 82.0182 16.9715C82.1718 16.9714 82.3225 16.9276 82.4542 16.8449L86.4376 14.3606L90.4196 16.8449C90.5622 16.9344 90.7269 16.978 90.8931 16.9705C91.0593 16.9629 91.2198 16.9044 91.3543 16.8023C91.4895 16.7003 91.5929 16.559 91.6517 16.3962C91.7105 16.2333 91.7221 16.0559 91.6851 15.8862L90.6558 11.1548L94.1464 7.96104C94.272 7.84659 94.3626 7.69616 94.4069 7.52844C94.4512 7.36073 94.4474 7.18312 94.3958 7.01768L94.3957 7.01777Z" fill="#FBBF24"/>
</svg>
