<svg width="115" height="21" viewBox="0 0 115 21" fill="none" xmlns="http://www.w3.org/2000/svg">
<path d="M19.9478 8.00706C19.8839 7.8002 19.763 7.61756 19.6003 7.4819C19.4375 7.34625 19.2401 7.26358 19.0327 7.2442L13.2602 6.6973L10.9775 1.12222C10.8956 0.922521 10.7593 0.752299 10.5856 0.632664C10.4118 0.513029 10.2082 0.449244 10.0001 0.449219C9.79176 0.449242 9.58806 0.51314 9.41428 0.632971C9.2405 0.752802 9.1043 0.923283 9.02261 1.12322L6.73991 6.6973L0.966575 7.24431C0.759395 7.26411 0.562339 7.34693 0.399841 7.48249C0.237342 7.61806 0.116547 7.80041 0.0524321 8.00694C-0.0121875 8.21352 -0.0171714 8.43536 0.0381003 8.64487C0.093372 8.85437 0.206459 9.0423 0.363292 9.18526L4.72663 13.1784L3.44003 19.0926C3.39362 19.3047 3.40806 19.5264 3.48155 19.7301C3.55503 19.9337 3.68432 20.1103 3.8533 20.2378C4.03426 20.375 4.25216 20.4491 4.47587 20.4493C4.66793 20.449 4.85632 20.3943 5.02086 20.2909L10.0002 17.1856L14.9776 20.2909C15.1559 20.4028 15.3617 20.4574 15.5695 20.448C15.7773 20.4385 15.9778 20.3654 16.1461 20.2378C16.315 20.1102 16.4442 19.9336 16.5178 19.73C16.5913 19.5264 16.6058 19.3048 16.5595 19.0926L15.2728 13.1784L19.6362 9.18615C19.7931 9.04308 19.9064 8.85505 19.9618 8.6454C20.0172 8.43576 20.0124 8.21375 19.9479 8.00694L19.9478 8.00706Z" fill="#FBBF24"/>
<path d="M43.5415 8.00706C43.4776 7.8002 43.3567 7.61756 43.194 7.4819C43.0313 7.34625 42.8339 7.26358 42.6264 7.2442L36.8539 6.6973L34.5712 1.12222C34.4893 0.922521 34.353 0.752299 34.1793 0.632664C34.0055 0.513029 33.802 0.449244 33.5938 0.449219C33.3855 0.449242 33.1818 0.51314 33.008 0.632971C32.8342 0.752802 32.698 0.923283 32.6163 1.12322L30.3336 6.6973L24.5603 7.24431C24.3531 7.26411 24.1561 7.34693 23.9936 7.48249C23.8311 7.61806 23.7103 7.80041 23.6462 8.00694C23.5815 8.21352 23.5766 8.43536 23.6318 8.64487C23.6871 8.85437 23.8002 9.0423 23.957 9.18526L28.3204 13.1784L27.0338 19.0926C26.9874 19.3047 27.0018 19.5264 27.0753 19.7301C27.1488 19.9337 27.2781 20.1103 27.447 20.2378C27.628 20.375 27.8459 20.4491 28.0696 20.4493C28.2617 20.449 28.4501 20.3943 28.6146 20.2909L33.5939 17.1856L38.5714 20.2909C38.7496 20.4028 38.9555 20.4574 39.1633 20.448C39.3711 20.4385 39.5716 20.3654 39.7398 20.2378C39.9087 20.1102 40.038 19.9336 40.1115 19.73C40.185 19.5264 40.1995 19.3048 40.1533 19.0926L38.8666 13.1784L43.2299 9.18615C43.3869 9.04308 43.5001 8.85505 43.5555 8.6454C43.6109 8.43576 43.6061 8.21375 43.5416 8.00694L43.5415 8.00706Z" fill="#FBBF24"/>
<path d="M67.1353 8.00706C67.0713 7.8002 66.9505 7.61756 66.7877 7.4819C66.625 7.34625 66.4276 7.26358 66.2202 7.2442L60.4477 6.6973L58.165 1.12222C58.0831 0.922521 57.9468 0.752299 57.773 0.632664C57.5993 0.513029 57.3957 0.449244 57.1875 0.449219C56.9792 0.449242 56.7755 0.51314 56.6018 0.632971C56.428 0.752802 56.2918 0.923283 56.2101 1.12322L53.9274 6.6973L48.1541 7.24431C47.9469 7.26411 47.7498 7.34693 47.5873 7.48249C47.4248 7.61806 47.304 7.80041 47.2399 8.00694C47.1753 8.21352 47.1703 8.43536 47.2256 8.64487C47.2809 8.85437 47.3939 9.0423 47.5508 9.18526L51.9141 13.1784L50.6275 19.0926C50.5811 19.3047 50.5955 19.5264 50.669 19.7301C50.7425 19.9337 50.8718 20.1103 51.0408 20.2378C51.2217 20.375 51.4396 20.4491 51.6634 20.4493C51.8554 20.449 52.0438 20.3943 52.2083 20.2909L57.1876 17.1856L62.1651 20.2909C62.3434 20.4028 62.5492 20.4574 62.757 20.448C62.9648 20.4385 63.1653 20.3654 63.3335 20.2378C63.5025 20.1102 63.6317 19.9336 63.7052 19.73C63.7788 19.5264 63.7933 19.3048 63.747 19.0926L62.4603 13.1784L66.8237 9.18615C66.9806 9.04308 67.0938 8.85505 67.1493 8.6454C67.2047 8.43576 67.1999 8.21375 67.1354 8.00694L67.1353 8.00706Z" fill="#FBBF24"/>
<path d="M90.729 8.00706C90.6651 7.8002 90.5442 7.61756 90.3815 7.4819C90.2188 7.34625 90.0214 7.26358 89.8139 7.2442L84.0414 6.6973L81.7587 1.12222C81.6768 0.922521 81.5405 0.752299 81.3668 0.632664C81.193 0.513029 80.9895 0.449244 80.7813 0.449219C80.573 0.449242 80.3693 0.51314 80.1955 0.632971C80.0217 0.752802 79.8855 0.923283 79.8038 1.12322L77.5211 6.6973L71.7478 7.24431C71.5406 7.26411 71.3436 7.34693 71.1811 7.48249C71.0186 7.61806 70.8978 7.80041 70.8337 8.00694C70.769 8.21352 70.7641 8.43536 70.8193 8.64487C70.8746 8.85437 70.9877 9.0423 71.1445 9.18526L75.5079 13.1784L74.2213 19.0926C74.1749 19.3047 74.1893 19.5264 74.2628 19.7301C74.3363 19.9337 74.4656 20.1103 74.6345 20.2378C74.8155 20.375 75.0334 20.4491 75.2571 20.4493C75.4492 20.449 75.6376 20.3943 75.8021 20.2909L80.7814 17.1856L85.7589 20.2909C85.9371 20.4028 86.143 20.4574 86.3508 20.448C86.5586 20.4385 86.7591 20.3654 86.9273 20.2378C87.0962 20.1102 87.2255 19.9336 87.299 19.73C87.3725 19.5264 87.387 19.3048 87.3408 19.0926L86.0541 13.1784L90.4174 9.18615C90.5744 9.04308 90.6876 8.85505 90.743 8.6454C90.7984 8.43576 90.7936 8.21375 90.7291 8.00694L90.729 8.00706Z" fill="#FBBF24"/>
<path d="M114.323 8.00706C114.259 7.8002 114.138 7.61756 113.975 7.4819C113.813 7.34625 113.615 7.26358 113.408 7.2442L107.635 6.6973L105.352 1.12222C105.271 0.922521 105.134 0.752299 104.961 0.632664C104.787 0.513029 104.583 0.449244 104.375 0.449219C104.167 0.449242 103.963 0.51314 103.789 0.632971C103.615 0.752802 103.479 0.923283 103.398 1.12322L101.115 6.6973L95.3416 7.24431C95.1344 7.26411 94.9373 7.34693 94.7748 7.48249C94.6123 7.61806 94.4915 7.80041 94.4274 8.00694C94.3628 8.21352 94.3578 8.43536 94.4131 8.64487C94.4684 8.85437 94.5814 9.0423 94.7383 9.18526L99.1016 13.1784L97.815 19.0926C97.7686 19.3047 97.783 19.5264 97.8565 19.7301C97.93 19.9337 98.0593 20.1103 98.2283 20.2378C98.4092 20.375 98.6271 20.4491 98.8509 20.4493C99.0429 20.449 99.2313 20.3943 99.3958 20.2909L104.375 17.1856L109.353 20.2909C109.531 20.4028 109.737 20.4574 109.945 20.448C110.152 20.4385 110.353 20.3654 110.521 20.2378C110.69 20.1102 110.819 19.9336 110.893 19.73C110.966 19.5264 110.981 19.3048 110.935 19.0926L109.648 13.1784L114.011 9.18615C114.168 9.04308 114.281 8.85505 114.337 8.6454C114.392 8.43576 114.387 8.21375 114.323 8.00694L114.323 8.00706Z" fill="#FBBF24"/>
</svg>
