<svg width="113" height="13" viewBox="0 0 113 13" fill="none" xmlns="http://www.w3.org/2000/svg">
<path d="M11.9707 5.23197C11.9323 5.10786 11.8598 4.99827 11.7621 4.91688C11.6645 4.83548 11.5461 4.78588 11.4216 4.77425L7.95811 4.44611L6.58849 1.10107C6.53934 0.981247 6.45758 0.879114 6.35332 0.807333C6.24907 0.735552 6.12692 0.697281 6.00202 0.697266C5.87704 0.697279 5.75483 0.735618 5.65056 0.807517C5.54629 0.879416 5.46457 0.981704 5.41556 1.10167L4.04594 4.44611L0.581935 4.77432C0.457627 4.7862 0.339393 4.83589 0.241894 4.91723C0.144395 4.99857 0.0719181 5.10798 0.033449 5.2319C-0.00532273 5.35585 -0.00831311 5.48895 0.0248499 5.61466C0.058013 5.74036 0.125865 5.85311 0.219965 5.93889L2.83797 8.33475L2.06601 11.8833C2.03816 12.0106 2.04682 12.1436 2.09092 12.2658C2.13501 12.388 2.21258 12.4939 2.31397 12.5704C2.42254 12.6527 2.55329 12.6972 2.68751 12.6973C2.80275 12.6972 2.91578 12.6643 3.01451 12.6023L6.00209 10.7391L8.98858 12.6023C9.09552 12.6694 9.21903 12.7022 9.34371 12.6965C9.46838 12.6908 9.58869 12.647 9.68963 12.5704C9.79098 12.4939 9.86853 12.3879 9.91264 12.2658C9.95675 12.1436 9.96547 12.0106 9.93772 11.8833L9.1657 8.33475L11.7837 5.93942C11.8779 5.85358 11.9458 5.74076 11.9791 5.61498C12.0123 5.48919 12.0094 5.35598 11.9707 5.2319L11.9707 5.23197Z" fill="#FBBF24"/>
<path d="M27.5644 5.23197C27.526 5.10786 27.4535 4.99827 27.3559 4.91688C27.2582 4.83548 27.1398 4.78588 27.0153 4.77425L23.5518 4.44611L22.1822 1.10107C22.1331 0.981247 22.0513 0.879114 21.9471 0.807333C21.8428 0.735552 21.7207 0.697281 21.5958 0.697266C21.4708 0.697279 21.3486 0.735618 21.2443 0.807517C21.14 0.879416 21.0583 0.981704 21.0093 1.10167L19.6397 4.44611L16.1757 4.77432C16.0514 4.7862 15.9331 4.83589 15.8356 4.91723C15.7381 4.99857 15.6657 5.10798 15.6272 5.2319C15.5884 5.35585 15.5854 5.48895 15.6186 5.61466C15.6517 5.74036 15.7196 5.85311 15.8137 5.93889L18.4317 8.33475L17.6597 11.8833C17.6319 12.0106 17.6406 12.1436 17.6847 12.2658C17.7287 12.388 17.8063 12.4939 17.9077 12.5704C18.0163 12.6527 18.147 12.6972 18.2812 12.6973C18.3965 12.6972 18.5095 12.6643 18.6082 12.6023L21.5958 10.7391L24.5823 12.6023C24.6893 12.6694 24.8128 12.7022 24.9374 12.6965C25.0621 12.6908 25.1824 12.647 25.2834 12.5704C25.3847 12.4939 25.4623 12.3879 25.5064 12.2658C25.5505 12.1436 25.5592 12.0106 25.5315 11.8833L24.7594 8.33475L27.3774 5.93942C27.4716 5.85358 27.5395 5.74076 27.5728 5.61498C27.606 5.48919 27.6031 5.35598 27.5645 5.2319L27.5644 5.23197Z" fill="#FBBF24"/>
<path d="M43.1581 5.23197C43.1198 5.10786 43.0473 4.99827 42.9496 4.91688C42.852 4.83548 42.7336 4.78588 42.6091 4.77425L39.1456 4.44611L37.776 1.10107C37.7268 0.981247 37.6451 0.879114 37.5408 0.807333C37.4366 0.735552 37.3144 0.697281 37.1895 0.697266C37.0645 0.697279 36.9423 0.735618 36.838 0.807517C36.7338 0.879416 36.6521 0.981704 36.603 1.10167L35.2334 4.44611L31.7694 4.77432C31.6451 4.7862 31.5269 4.83589 31.4294 4.91723C31.3319 4.99857 31.2594 5.10798 31.2209 5.2319C31.1822 5.35585 31.1792 5.48895 31.2123 5.61466C31.2455 5.74036 31.3134 5.85311 31.4074 5.93889L34.0255 8.33475L33.2535 11.8833C33.2256 12.0106 33.2343 12.1436 33.2784 12.2658C33.3225 12.388 33.4001 12.4939 33.5015 12.5704C33.61 12.6527 33.7408 12.6972 33.875 12.6973C33.9902 12.6972 34.1033 12.6643 34.202 12.6023L37.1896 10.7391L40.1761 12.6023C40.283 12.6694 40.4065 12.7022 40.5312 12.6965C40.6559 12.6908 40.7762 12.647 40.8771 12.5704C40.9785 12.4939 41.056 12.3879 41.1001 12.2658C41.1442 12.1436 41.153 12.0106 41.1252 11.8833L40.3532 8.33475L42.9712 5.93942C43.0654 5.85358 43.1333 5.74076 43.1665 5.61498C43.1998 5.48919 43.1969 5.35598 43.1582 5.2319L43.1581 5.23197Z" fill="#FBBF24"/>
<path d="M58.7519 5.23197C58.7135 5.10786 58.641 4.99827 58.5434 4.91688C58.4457 4.83548 58.3273 4.78588 58.2028 4.77425L54.7393 4.44611L53.3697 1.10107C53.3206 0.981247 53.2388 0.879114 53.1346 0.807333C53.0303 0.735552 52.9082 0.697281 52.7833 0.697266C52.6583 0.697279 52.5361 0.735618 52.4318 0.807517C52.3275 0.879416 52.2458 0.981704 52.1968 1.10167L50.8272 4.44611L47.3632 4.77432C47.2389 4.7862 47.1206 4.83589 47.0231 4.91723C46.9256 4.99857 46.8532 5.10798 46.8147 5.2319C46.7759 5.35585 46.7729 5.48895 46.8061 5.61466C46.8392 5.74036 46.9071 5.85311 47.0012 5.93889L49.6192 8.33475L48.8472 11.8833C48.8194 12.0106 48.8281 12.1436 48.8722 12.2658C48.9162 12.388 48.9938 12.4939 49.0952 12.5704C49.2038 12.6527 49.3345 12.6972 49.4687 12.6973C49.584 12.6972 49.697 12.6643 49.7957 12.6023L52.7833 10.7391L55.7698 12.6023C55.8768 12.6694 56.0003 12.7022 56.1249 12.6965C56.2496 12.6908 56.3699 12.647 56.4709 12.5704C56.5722 12.4939 56.6498 12.3879 56.6939 12.2658C56.738 12.1436 56.7467 12.0106 56.719 11.8833L55.9469 8.33475L58.5649 5.93942C58.6591 5.85358 58.727 5.74076 58.7603 5.61498C58.7935 5.48919 58.7906 5.35598 58.752 5.2319L58.7519 5.23197Z" fill="#FBBF24"/>
<path d="M74.3456 5.23197C74.3073 5.10786 74.2348 4.99827 74.1371 4.91688C74.0395 4.83548 73.9211 4.78588 73.7966 4.77425L70.3331 4.44611L68.9635 1.10107C68.9143 0.981247 68.8326 0.879114 68.7283 0.807333C68.6241 0.735552 68.5019 0.697281 68.377 0.697266C68.252 0.697279 68.1298 0.735618 68.0255 0.807517C67.9213 0.879416 67.8396 0.981704 67.7905 1.10167L66.4209 4.44611L62.9569 4.77432C62.8326 4.7862 62.7144 4.83589 62.6169 4.91723C62.5194 4.99857 62.4469 5.10798 62.4084 5.2319C62.3697 5.35585 62.3667 5.48895 62.3998 5.61466C62.433 5.74036 62.5009 5.85311 62.5949 5.93889L65.213 8.33475L64.441 11.8833C64.4131 12.0106 64.4218 12.1436 64.4659 12.2658C64.51 12.388 64.5876 12.4939 64.689 12.5704C64.7975 12.6527 64.9283 12.6972 65.0625 12.6973C65.1777 12.6972 65.2908 12.6643 65.3895 12.6023L68.3771 10.7391L71.3636 12.6023C71.4705 12.6694 71.594 12.7022 71.7187 12.6965C71.8434 12.6908 71.9637 12.647 72.0646 12.5704C72.166 12.4939 72.2435 12.3879 72.2876 12.2658C72.3317 12.1436 72.3405 12.0106 72.3127 11.8833L71.5407 8.33475L74.1587 5.93942C74.2529 5.85358 74.3208 5.74076 74.354 5.61498C74.3873 5.48919 74.3844 5.35598 74.3457 5.2319L74.3456 5.23197Z" fill="#FBBF24"/>
</svg>
