<svg width="96" height="141" viewBox="0 0 96 141" fill="none" xmlns="http://www.w3.org/2000/svg">
<g clip-path="url(#clip0_2_1681)">
<path d="M87.2608 67.3466C92.4014 75.3431 95.2574 84.6725 94.8767 94.1921C94.4958 106.568 89.1647 118.943 80.216 127.321C71.2672 135.698 59.0818 140.268 47.0867 139.887C35.0917 140.268 22.9062 135.508 13.9575 127.13C8.05517 121.609 3.67601 114.374 1.39124 106.377L26.5238 99.7135C27.4758 103.331 29.1894 106.568 31.8549 109.234C35.8532 113.231 41.3748 115.516 47.0867 115.516C52.7987 115.516 58.3202 113.231 62.3186 109.234C66.317 105.235 68.6017 99.7135 68.6017 94.1921C68.6017 88.4803 66.5073 82.7685 62.3186 78.5799C58.1298 74.3912 52.7987 72.6777 47.0867 72.6777C43.2787 72.6777 39.6612 73.8201 36.4244 75.724L24.8102 55.3518L57.9394 24.6985H6.72238V0.328125H92.4014V25.6504L64.6034 51.544C74.3137 54.3999 81.7392 60.1117 87.2608 67.3466Z" fill="url(#paint0_linear_2_1681)" fill-opacity="0.6"/>
</g>
<defs>
<linearGradient id="paint0_linear_2_1681" x1="47.176" y1="-62.8663" x2="47.176" y2="160.775" gradientUnits="userSpaceOnUse">
<stop stop-color="#3C3C3C"/>
<stop offset="1" stop-color="#3C3C3C" stop-opacity="0"/>
</linearGradient>
<clipPath id="clip0_2_1681">
<rect width="95.28" height="140" fill="white" transform="translate(0.532959 0.328125)"/>
</clipPath>
</defs>
</svg>
