<svg width="41" height="40" viewBox="0 0 41 40" fill="none" xmlns="http://www.w3.org/2000/svg">
<g clip-path="url(#clip0_2_1795)">
<path d="M6.65875 29.9687C6.74854 29.8377 6.82306 29.6969 6.881 29.549C6.9006 29.5456 6.92065 29.5456 6.94026 29.549C6.99967 29.5307 7.05746 29.5076 7.11312 29.4799C7.20695 29.4008 7.05879 29.5342 7.0341 29.6181C7.0341 29.6181 6.97977 29.5885 6.89087 29.5786H6.83655C6.83655 29.5786 6.83655 29.5786 6.78222 29.5786C6.62304 29.6128 6.46752 29.6624 6.31798 29.7268C5.68517 30.0064 5.03717 30.2504 4.37705 30.4576C3.87881 30.6014 3.35252 30.6184 2.84604 30.507C2.698 30.4624 2.55551 30.4011 2.42131 30.3243C2.22709 30.2064 2.07103 30.0349 1.97188 29.8305C1.79899 29.3498 1.80954 28.8223 2.00152 28.349C2.08887 28.1519 2.19999 27.9661 2.33241 27.7959C2.48057 27.6329 2.63368 27.4749 2.82629 27.3021C3.33008 26.8587 3.89573 26.4911 4.50546 26.2107C4.65597 26.1393 4.80268 26.0602 4.94501 25.9737C5.0586 25.9045 5.2117 25.8206 5.20676 25.7959C5.24235 25.7634 5.26948 25.7227 5.28578 25.6774C5.29434 25.6575 5.30601 25.6392 5.32036 25.6231L5.34505 25.5292L5.37468 25.4008H5.46358C5.50423 25.3892 5.54387 25.3744 5.58211 25.3564C5.54676 25.4056 5.51695 25.4586 5.49321 25.5144C5.49321 25.5391 5.46358 25.5144 5.40925 25.5144C4.98658 25.5277 4.56847 25.606 4.16963 25.7465C3.71032 25.8799 3.24114 26.0231 2.74727 26.1465C2.43613 26.2206 2.36204 25.9687 2.48057 25.5885C2.64945 25.0735 3.00073 24.6379 3.46832 24.3638C3.72512 24.2267 3.98888 24.1031 4.25852 23.9934C4.57424 23.8614 4.9066 23.7733 5.24627 23.7317C5.50555 23.6996 5.76854 23.7163 6.02165 23.7811C6.21619 23.8323 6.40011 23.9176 6.56492 24.0329C6.76889 24.1698 6.93799 24.3524 7.05879 24.5663C7.23738 24.8907 7.32282 25.2581 7.30573 25.628C7.29946 25.7491 7.28459 25.8695 7.26128 25.9885C7.23994 26.1014 7.20853 26.2121 7.16744 26.3194C7.12299 26.4428 7.07361 26.5663 7.01928 26.6848C6.95928 26.7937 6.89329 26.8992 6.82173 27.0008L6.71308 27.149C6.68839 27.0848 6.68839 27.0848 6.68839 27.0848L6.6143 27.1441H6.4859C6.29793 27.179 6.11302 27.2285 5.93276 27.2922C5.6068 27.3959 5.43889 27.6478 5.48333 27.8552C5.52284 27.9589 5.66113 27.949 5.75496 27.9292L6.02659 27.8502C6.23565 27.7734 6.45266 27.7204 6.67357 27.6922C6.71308 27.6922 6.71802 27.6922 6.89581 27.6922C7.07361 27.6922 7.14275 27.7218 7.26622 27.7416C7.39606 27.7659 7.52338 27.8023 7.6465 27.8502C7.78627 27.8942 7.91922 27.9574 8.0416 28.0379C8.17564 28.1225 8.29842 28.2237 8.40707 28.3391C8.69426 28.681 8.8439 29.1176 8.82686 29.5638C8.80884 30.1245 8.64912 30.6716 8.36262 31.1539C8.22592 31.3956 8.06007 31.6195 7.86875 31.8206C7.80948 31.8749 7.77491 31.9243 7.70083 31.9836C7.62675 32.0428 7.55267 32.1021 7.4934 32.1416C7.38174 32.212 7.26637 32.2763 7.14769 32.3342C6.78716 32.4922 6.47108 32.586 6.10561 32.749C5.93251 32.8212 5.76706 32.9105 5.61174 33.0157C5.46358 33.1095 5.29072 33.2724 5.37962 33.4552C5.46852 33.6379 5.66113 33.5984 5.8241 33.5885C5.98708 33.5786 6.16982 33.549 6.31798 33.5292C6.58082 33.4863 6.84815 33.478 7.11312 33.5045H7.21189L7.31561 33.549C7.46001 33.6057 7.59751 33.6786 7.72552 33.7663C8.082 33.9778 8.33966 34.3225 8.44164 34.7243C8.44831 34.983 8.33309 35.2299 8.1305 35.391C8.04407 35.4813 7.94984 35.564 7.84899 35.6379C7.67727 35.7326 7.47552 35.7574 7.28597 35.707C7.082 35.675 6.88786 35.5973 6.71802 35.4799C6.62675 35.4049 6.52313 35.3464 6.41181 35.307L6.32786 35.2724H6.28341L6.13524 35.228C6.0263 35.1816 5.90712 35.1645 5.78953 35.1786C5.65125 35.1786 5.52778 35.1786 5.35493 35.2082C5.02721 35.2502 4.6975 35.275 4.36718 35.2823C4.23006 35.2809 4.09316 35.271 3.95726 35.2527C3.84861 35.2527 3.7202 35.2132 3.63624 35.1885C3.48421 35.1482 3.33687 35.0919 3.19669 35.0206C3.10123 34.9808 3.01019 34.9312 2.92506 34.8724C2.80951 34.8003 2.70475 34.7122 2.61392 34.6107C2.48436 34.4601 2.39289 34.2806 2.34723 34.0873C2.30069 33.927 2.28066 33.7602 2.28796 33.5934L2.33735 33.2132C2.35246 32.9801 2.4329 32.7559 2.56947 32.5663C2.61693 32.4763 2.67864 32.3946 2.75221 32.3243C2.83123 32.2453 2.89543 32.1663 2.98433 32.0873L3.25596 31.8354C3.36955 31.7564 3.5029 31.6823 3.62143 31.6033C3.73996 31.5243 3.88318 31.4453 4.01653 31.3663C4.15487 31.2817 4.29838 31.2058 4.4462 31.1391L5.36974 30.6996L5.83398 30.4724L6.13524 30.3144C6.17224 30.3002 6.21017 30.2886 6.24884 30.2799L6.3723 30.4576C6.4577 30.5719 6.55005 30.6807 6.64887 30.7836L6.72296 30.8626L6.18463 30.2799C6.33033 30.1774 6.45172 30.0442 6.54022 29.8897L6.65875 29.9687Z" fill="white"/>
<path d="M8.87135 28.4034L9.03433 29.5244C9.0689 29.9046 9.11335 30.2799 9.13804 30.6553C9.13804 30.9318 9.22694 31.1935 9.23188 31.4701C9.22936 32.4402 9.13177 33.4078 8.94049 34.359C8.87629 34.7836 8.81209 35.2034 8.75282 35.6232C8.68965 36.1802 8.48944 36.713 8.17005 37.1738C8.05646 37.317 7.79964 37.1738 7.55271 36.9417C7.29263 36.7386 7.11676 36.4467 7.05883 36.1219C7.09661 35.1539 7.20556 34.19 7.38479 33.238C7.43299 32.625 7.40983 32.0085 7.31565 31.4009C7.28601 31.0602 7.26132 30.7194 7.21193 30.3836C7.16254 30.0478 7.12303 29.7022 7.05883 29.3614C6.99463 28.9417 6.88597 28.5318 6.7872 28.117C6.64398 27.4916 6.44564 26.8802 6.19455 26.2898C5.93986 25.8609 5.64907 25.4545 5.32531 25.075C5.26111 24.9861 5.18209 24.912 5.12282 24.8182C4.91539 24.4725 4.97466 24.2948 5.3747 23.954C5.46853 23.8799 5.55249 23.796 5.65127 23.7269C5.92178 23.4905 6.32029 23.4741 6.6094 23.6874C6.81115 23.839 7.00253 24.004 7.1823 24.1812C7.34893 24.3712 7.49774 24.5762 7.62679 24.7935C7.89195 25.2298 8.11676 25.6893 8.29846 26.1664C8.56243 26.885 8.77692 27.6209 8.94049 28.3688L8.87135 28.4034Z" fill="white"/>
<path d="M20.3292 15.9539C18.5818 18.3679 16.3643 20.4038 13.81 21.9391C13.3507 22.2156 12.8865 22.4872 12.4222 22.7539C11.9558 23.0155 11.4761 23.2529 10.985 23.465C9.71337 24.0102 8.40257 24.4592 7.06368 24.8082C6.39695 24.9712 5.73515 25.1489 5.05856 25.2675C4.72273 25.3317 4.39183 25.4008 4.07081 25.46L3.57694 25.5292H3.36457C3.26146 25.5384 3.15914 25.5549 3.05837 25.5786C2.99405 25.6572 2.96702 25.7599 2.98429 25.8601C2.98705 25.9627 2.99695 26.065 3.01392 26.1662V26.2502L3.04849 26.4033L3.12751 26.7391C3.3053 27.4996 3.54236 28.2749 3.75967 29.065C3.97697 29.8551 4.0955 30.6749 4.21403 31.4947C4.38846 32.5738 4.42166 33.6711 4.31281 34.7589C4.18147 35.8995 3.74657 36.9841 3.05343 37.8996C2.55955 38.4576 2.28792 38.0428 2.1447 37.3563C2.06568 37.0107 1.9916 36.591 1.93233 36.1613C1.85311 35.7083 1.82659 35.2476 1.85331 34.7884C1.89381 33.9964 1.87565 33.2025 1.79899 32.4132C1.70067 31.5718 1.55891 30.7361 1.37425 29.9095C1.25572 29.0601 1.16189 28.1662 0.993968 27.2329L0.850744 26.3242C0.806779 26.1159 0.777077 25.9046 0.761847 25.6922C0.741941 25.4918 0.741941 25.29 0.761847 25.0897C0.807263 24.7223 0.964103 24.3776 1.21127 24.102C1.50822 23.8569 1.86401 23.6935 2.24347 23.6279L2.90527 23.5243L3.23122 23.4799L3.40902 23.4551C3.65102 23.4551 3.90289 23.4008 4.1202 23.3613C6.55746 22.9583 8.91279 22.161 11.0937 21.0008C13.5152 19.7954 15.6699 18.1161 17.4301 16.0626C18.5147 14.7799 19.4554 13.3823 20.2353 11.8946C20.6304 11.2378 21.0008 10.5564 21.391 9.86504C21.5885 9.51442 21.796 9.17368 22.0232 8.79837C22.2684 8.30336 22.7409 7.9601 23.2875 7.87985H23.5887C23.666 7.87501 23.7436 7.87501 23.8209 7.87985C23.987 7.88973 24.1522 7.91284 24.3147 7.94899C24.6423 8.0161 24.9551 8.14153 25.2383 8.31936C25.787 8.69368 26.194 9.24153 26.3939 9.87491C26.7024 10.9563 26.7482 12.0957 26.5273 13.1984C26.4378 13.728 26.3124 14.2511 26.1519 14.7638C25.9808 15.2728 25.7711 15.768 25.5247 16.2452C25.3172 16.6705 25.0813 17.0813 24.8185 17.4749C24.4644 18.0167 24.0102 18.486 23.4801 18.8576C23.2045 19.0553 22.8568 19.1237 22.5269 19.0452C22.3927 19.029 22.2613 18.9941 22.1367 18.9416C21.7861 18.744 22.1022 18.1168 22.6948 17.1934C23.5403 15.7857 24.1399 14.2443 24.4678 12.6354C24.6379 11.9375 24.6514 11.2107 24.5073 10.507C24.4619 10.2976 24.3573 10.1057 24.2061 9.95387C24.0488 9.81787 23.8507 9.73797 23.6431 9.72676C23.6021 9.72158 23.5606 9.72158 23.5196 9.72676C23.5196 9.72676 23.5196 9.72676 23.5443 9.72676C23.5088 9.76983 23.4774 9.81615 23.4504 9.86504L23.3418 10.028C23.2776 10.1712 23.2282 10.2996 23.1689 10.4477L22.4923 12.2996C22.3685 12.6273 22.225 12.9472 22.0627 13.2576C21.8947 13.5687 21.7169 13.8749 21.5392 14.181C21.1737 14.7884 20.7934 15.391 20.3785 15.9736L20.3292 15.9539Z" fill="white"/>
<path d="M24.3938 39.6826C23.1295 39.5887 21.9244 39.406 20.6749 39.248C20.2255 39.1788 19.7761 39.1739 19.3316 39.0998C17.766 38.8233 16.2103 38.4974 14.6645 38.1467C13.978 37.9838 13.2866 37.8603 12.5951 37.727C12.1556 37.643 11.7062 37.5591 11.2617 37.4505L10.9258 37.3517L10.6394 37.169C10.4298 37.0426 10.2301 36.9006 10.0418 36.7443C9.80474 36.5468 9.93315 36.3986 10.2542 36.2505C10.4122 36.1616 10.6246 36.0529 10.8419 35.9443C10.9604 35.89 11.0888 35.8307 11.2172 35.7813L11.4098 35.7122C11.4673 35.7052 11.5253 35.7052 11.5827 35.7122C13.252 36.0381 15.0398 36.2307 16.7684 36.7443C17.8457 36.9716 18.9386 37.1169 20.0378 37.1788C21.2429 37.3204 22.4463 37.4373 23.6481 37.5295L24.7593 37.5887H25.8606C26.3864 37.5765 26.9109 37.5319 27.4311 37.4554C27.5487 37.4405 27.6645 37.4141 27.7768 37.3764C27.8849 37.3483 27.9905 37.312 28.0929 37.2677C28.2019 37.2189 28.3075 37.1628 28.409 37.0998C28.4917 37.051 28.5709 36.9966 28.6461 36.9369C28.8303 36.8023 28.953 36.5995 28.9868 36.3739C29.002 36.1591 28.876 35.9592 28.6757 35.8801C28.6004 35.8529 28.5227 35.833 28.4436 35.8208C28.3937 35.8051 28.348 35.7781 28.3102 35.7418C28.2708 35.6791 28.2408 35.6108 28.2213 35.5393C28.1503 35.2959 28.1269 35.0411 28.1522 34.7887C28.1522 34.6505 28.1522 34.5171 28.1522 34.3937C28.1756 34.176 28.2929 33.9794 28.4732 33.8554C28.5926 33.7665 28.7199 33.6888 28.8535 33.6233C28.9325 33.5937 29.0017 33.5245 29.1004 33.5344L29.4215 33.5937C30.1145 33.7302 30.7312 34.1213 31.15 34.69C31.3484 34.9793 31.497 35.2998 31.5896 35.6381C31.6332 35.9908 31.6148 36.3485 31.5352 36.6949C31.4365 37.4109 30.7994 37.9986 30.2117 38.5171C29.9442 38.738 29.6564 38.9331 29.3523 39.0998L28.9918 39.2776C28.8488 39.3383 28.702 39.3894 28.5522 39.4307C28.1666 39.5587 27.767 39.6399 27.362 39.6727C27.1873 39.7012 27.0106 39.716 26.8335 39.7171H26.3397C25.9989 39.7171 25.6828 39.7171 25.3519 39.7171C25.021 39.7171 24.7 39.7171 24.3642 39.6875L24.3938 39.6826Z" fill="white"/>
<path d="M33.5995 29.7368C33.6736 29.8356 33.7328 29.9393 33.802 30.043L33.8958 30.1961C33.9158 30.2602 33.9274 30.3266 33.9304 30.3936C33.9304 30.6652 33.9946 30.9319 33.9946 31.1986V31.5887C34.0118 31.7165 34.0118 31.8461 33.9946 31.9739L33.9205 32.3492C33.8891 32.458 33.8443 32.5625 33.7872 32.6603C33.718 32.8084 33.6588 32.9517 33.5946 33.0702C33.5386 33.1985 33.4673 33.3195 33.3822 33.4307C33.1025 33.7931 32.7511 34.094 32.35 34.3146C31.9861 34.5275 31.5912 34.6824 31.1795 34.7739C30.83 34.8693 30.4701 34.9207 30.1078 34.927C29.6304 34.9812 29.1517 34.8365 28.7842 34.527C28.6706 34.4282 28.8188 34.2455 29.0213 34.0726C29.1845 33.9071 29.3866 33.7849 29.609 33.7171C29.897 33.7122 30.1829 33.6673 30.4584 33.5838C30.7536 33.509 31.0426 33.4116 31.3227 33.2924C31.6522 33.126 31.8987 32.8313 32.0043 32.4776C32.0734 32.3047 32.0882 32.1665 32.1277 32.0726C32.1573 31.9481 32.1706 31.8203 32.1673 31.6924C32.1805 31.5109 32.0831 31.3394 31.9203 31.2578C31.8563 31.2313 31.7902 31.2098 31.7228 31.1936C31.6719 31.1894 31.6206 31.1894 31.5697 31.1936H31.382C31.1054 31.1936 30.814 31.1442 30.5029 31.1047C29.992 31.0843 29.4843 31.0149 28.9867 30.8973C28.8713 30.873 28.7575 30.8416 28.6459 30.8035C28.5726 30.7523 28.5105 30.6868 28.4632 30.6109C28.4433 30.5182 28.4433 30.4222 28.4632 30.3294C28.5189 30.1059 28.616 29.8948 28.7496 29.7072C28.8188 29.5986 28.883 29.4899 28.9571 29.3912C29.0761 29.2344 29.2195 29.0976 29.3818 28.9862C29.5461 28.8556 29.7194 28.7368 29.9004 28.6307C30.0509 28.5908 30.2045 28.5643 30.3597 28.5517C30.4682 28.5452 30.5771 28.5452 30.6856 28.5517C30.891 28.5332 31.0976 28.5332 31.303 28.5517C31.5104 28.5517 31.7573 28.7294 32.3697 28.8381L33.1056 29.1245L33.397 29.3862L33.639 29.6875L33.5995 29.7368Z" fill="white"/>
<path d="M29.6535 22.8921C30.5079 23.2329 31.4068 23.5637 32.3402 24.0032C32.7123 24.1408 33.067 24.3215 33.3971 24.5415C34.0825 25.0104 34.6013 25.6848 34.8787 26.4674C34.9697 26.8309 35.0178 27.2039 35.0219 27.5785C35.0248 27.7789 35.0082 27.979 34.9726 28.1761C34.9295 28.3865 34.8599 28.5907 34.7651 28.7835C34.5925 29.1223 34.3378 29.4126 34.0243 29.6279C33.7445 29.8075 33.4377 29.9409 33.1156 30.023C32.386 30.2751 31.5869 30.2326 30.8882 29.9045C30.6758 29.7958 30.7746 29.5588 30.9969 29.3069C31.2265 29.0139 31.5299 28.7873 31.876 28.6501C32.3109 28.6352 32.731 28.4889 33.081 28.2304C33.1396 28.174 33.1807 28.102 33.1995 28.023C33.2301 27.8283 33.2301 27.63 33.1995 27.4353C33.1925 27.3603 33.1793 27.286 33.16 27.2131C33.1467 27.163 33.1268 27.1148 33.1008 27.0699C33.0414 26.9625 32.9587 26.8697 32.8588 26.7983C32.6005 26.6048 32.3224 26.4392 32.0291 26.3045C31.2473 25.9018 30.4347 25.5616 29.5992 25.2872L27.925 24.7143C27.0765 24.3972 26.2514 24.021 25.4556 23.5884C24.7466 23.2781 24.0822 22.8746 23.4801 22.3884C23.3425 22.2748 23.2153 22.1492 23.0998 22.0131C22.7047 21.46 22.8183 21.144 23.2331 20.823C23.3274 20.7447 23.4264 20.6721 23.5295 20.6057C23.8605 20.4257 24.2603 20.4257 24.5913 20.6057C25.0309 20.8576 25.3963 21.0995 25.826 21.2921C26.2557 21.4847 26.7051 21.7119 27.2138 21.9094C27.9645 22.2008 28.7695 22.5464 29.6486 22.8279L29.6535 22.8921Z" fill="white"/>
<path d="M29.8314 7.19847C29.9005 7.3318 29.7079 7.40094 29.3671 7.43551C29.2103 7.43121 29.0559 7.39595 28.9127 7.3318C28.8365 7.25956 28.7656 7.18198 28.7004 7.0997C28.6707 7.05526 28.5769 6.39353 28.5127 6.17131C28.4649 5.96588 28.4483 5.75447 28.4633 5.54415C28.4633 5.1244 28.4633 4.70956 28.4337 4.30462C28.4298 4.21403 28.4432 4.12354 28.4732 4.03796C28.5849 3.74347 28.6122 3.42368 28.5522 3.1145C28.5522 3.06018 28.5522 3.0108 28.488 2.96141C28.3702 2.64607 28.3181 2.30997 28.3349 1.97376C28.4287 1.69228 28.4485 1.41573 28.5522 1.11944C28.5522 1.07993 28.5522 1.04042 28.6115 0.991042C28.7143 0.937956 28.7688 0.822711 28.7448 0.70956C28.7448 0.650301 28.7448 0.586104 28.7448 0.521906C28.7624 0.453607 28.7872 0.387386 28.8189 0.324375C28.8694 0.247903 28.9255 0.175276 28.9868 0.107091C29.0627 0.0534123 29.1569 0.0320961 29.2486 0.0478323C29.3227 0.0873383 29.4066 0.0231409 29.4807 0.00338787C29.5085 -0.00112929 29.5369 -0.00112929 29.5647 0.00338787C29.7074 0.0969254 29.8443 0.199177 29.9746 0.309561C30.1037 0.424783 30.2196 0.553965 30.3203 0.694746L30.3944 0.867585C30.4546 0.989812 30.5042 1.11704 30.5425 1.24783C30.6216 1.53425 30.6956 1.84042 30.7203 1.89968C30.745 1.95894 30.7203 2.03302 30.6858 2.10215C30.6512 2.17129 30.8833 3.01573 30.8685 3.05524C30.8685 3.23796 30.9228 3.42561 30.7648 3.60833C30.7485 3.64444 30.7485 3.68579 30.7648 3.72191C30.7659 4.04019 30.7176 4.35673 30.6216 4.66018C30.587 4.81326 30.587 4.97625 30.5623 5.12933C30.5623 5.15896 30.5327 5.18859 30.5228 5.21328C30.5004 5.24469 30.4837 5.2798 30.4734 5.31699C30.4388 5.68736 30.3005 6.04785 30.2956 6.41328C30.2956 6.50217 30.0635 6.87254 30.0684 6.97131C30.0733 7.07007 29.8017 7.14415 29.8314 7.19847Z" fill="white"/>
<path d="M34.0886 14.2899C34.0392 14.3986 33.891 14.3492 33.6885 14.2307C33.6039 14.1677 33.5388 14.0822 33.5009 13.9837C33.5081 13.899 33.5213 13.8148 33.5404 13.7319C33.5404 13.6875 33.9404 13.164 34.0738 12.9714C34.1983 12.787 34.3479 12.6208 34.5182 12.4776C34.8428 12.1796 35.1988 11.918 35.5801 11.6973C35.6668 11.647 35.7624 11.6135 35.8616 11.5986C36.1945 11.5461 36.5165 11.4393 36.8148 11.2825C36.8641 11.2825 36.9234 11.2479 36.958 11.1739C37.2776 10.9566 37.6456 10.821 38.0297 10.7788C38.1927 10.8084 38.3458 10.8035 38.5236 10.843L38.9878 10.9516C39.0323 10.9516 39.0767 10.9516 39.1212 11.0109C39.2249 11.1689 39.3088 11.1393 39.3977 11.1541C39.527 11.1632 39.653 11.1985 39.7681 11.2578C39.8381 11.3074 39.8983 11.3693 39.9459 11.4405C40.0003 11.4998 39.9459 11.7072 39.9459 11.7319C39.9459 11.7566 39.9459 11.8949 39.9459 11.9837V12.0726C39.7415 12.277 39.5201 12.4637 39.2841 12.6307L39.1458 12.685L38.8495 12.8134C38.6372 12.9121 38.41 12.9566 38.3556 12.9961C38.3013 13.0356 38.2519 12.9961 38.1976 12.9961C38.1433 12.9961 37.5457 13.2776 37.521 13.2825C37.3778 13.2825 37.2642 13.406 37.0814 13.3171C37.0539 13.3012 37.0201 13.3012 36.9926 13.3171C36.7575 13.4074 36.5166 13.4816 36.2715 13.5393C36.148 13.5788 36.0344 13.643 35.911 13.6825C35.911 13.6825 35.8566 13.6825 35.8319 13.6825C35.7994 13.675 35.7657 13.675 35.7332 13.6825C35.4353 13.7838 35.1489 13.9162 34.8788 14.0776C34.8195 14.1171 34.4442 14.1912 34.3849 14.2504C34.3256 14.3097 34.1083 14.2455 34.0886 14.2899Z" fill="white"/>
</g>
<defs>
<clipPath id="clip0_2_1795">
<rect width="39.51" height="40" fill="white" transform="translate(0.746918)"/>
</clipPath>
</defs>
</svg>
