<svg width="98" height="141" viewBox="0 0 98 141" fill="none" xmlns="http://www.w3.org/2000/svg">
<path d="M1.46014 46.2129C0.888916 32.8854 7.17241 19.7483 16.8833 11.1806C26.2132 2.99364 38.9707 0.328125 50.5856 0.328125C64.6759 0.328125 78.0045 5.08797 86.5729 16.1308C93.8084 24.5081 97.4262 35.7413 97.4262 46.7841C97.4262 66.2043 88.4769 75.5336 72.2922 89.6227L42.0172 115.707H94.57V140.077H0.888916V115.707L58.9636 66.5851C67.7224 59.1597 70.7689 52.3056 70.7689 46.4034C70.7689 41.4531 69.2457 36.5029 66.0087 32.5046C61.8198 27.364 55.917 24.6985 49.0623 24.6985C43.7309 24.6985 38.5899 26.7928 34.7816 30.4103C30.5927 34.4086 27.9269 40.3108 28.1174 46.2129H1.46014Z" fill="url(#paint0_linear_2_1693)"/>
<defs>
<linearGradient id="paint0_linear_2_1693" x1="48.1513" y1="-62.9425" x2="48.1513" y2="160.968" gradientUnits="userSpaceOnUse">
<stop stop-color="#3C3C3C"/>
<stop offset="1" stop-color="#3C3C3C" stop-opacity="0"/>
</linearGradient>
</defs>
</svg>
